<svg width="53" height="48" viewBox="0 0 53 48" fill="none" xmlns="http://www.w3.org/2000/svg">
<mask id="path-1-inside-1_1054_1553" fill="white">
<path d="M39.1272 2.84679C39.0272 2.80679 38.9472 2.7268 38.8972 2.6268C38.8772 2.5768 38.8672 2.5268 38.8672 2.4668C38.8672 2.5168 38.8772 2.5768 38.8972 2.6268C38.9372 2.7268 39.0272 2.80679 39.1272 2.84679L44.1272 4.8668C44.1772 4.8868 44.2272 4.8968 44.2872 4.8968C44.2372 4.8968 44.1772 4.8868 44.1272 4.8668L39.1272 2.84679Z"/>
</mask>
<path d="M39.1272 2.84679C39.0272 2.80679 38.9472 2.7268 38.8972 2.6268C38.8772 2.5768 38.8672 2.5268 38.8672 2.4668C38.8672 2.5168 38.8772 2.5768 38.8972 2.6268C38.9372 2.7268 39.0272 2.80679 39.1272 2.84679L44.1272 4.8668C44.1772 4.8868 44.2272 4.8968 44.2872 4.8968C44.2372 4.8968 44.1772 4.8868 44.1272 4.8668L39.1272 2.84679Z" fill="#AD7979"/>
<path d="M38.1907 5.16477L43.1907 7.18478L45.0636 2.54882L40.0636 0.528814L38.1907 5.16477ZM40.9841 -1.79559C42.1823 -1.31633 42.9546 -0.438685 43.3693 0.390733L34.4251 4.86287C34.9398 5.89229 35.8721 6.92992 37.2702 7.48918L40.9841 -1.79559ZM43.5396 0.769847C43.6394 1.01931 43.7269 1.30246 43.7864 1.61507C43.8456 1.92587 43.8672 2.2135 43.8672 2.4668H33.8672C33.8672 3.14891 33.9934 3.8303 34.2548 4.48375L43.5396 0.769847ZM33.8672 2.4668C33.8672 3.08026 33.973 3.77927 34.2548 4.48375L43.5396 0.769847C43.6731 1.10366 43.7492 1.40574 43.7941 1.65245C43.8393 1.90114 43.8672 2.17324 43.8672 2.4668H33.8672ZM34.2548 4.48375C34.8866 6.06327 36.1251 7.03111 37.2702 7.48918L40.9841 -1.79559C41.9293 -1.41752 42.9878 -0.609671 43.5396 0.769847L34.2548 4.48375ZM42.2702 9.50918C42.9237 9.77056 43.6051 9.8968 44.2872 9.8968V-0.103203C44.5405 -0.103203 44.8281 -0.081604 45.1389 -0.0224116C45.4515 0.0371287 45.7347 0.124631 45.9841 0.224415L42.2702 9.50918ZM44.2872 -0.103203C44.5807 -0.103203 44.8528 -0.0752773 45.1015 -0.0300665C45.3482 0.0147858 45.6503 0.0908906 45.9841 0.224415L42.2702 9.50918C42.9747 9.79098 43.6737 9.8968 44.2872 9.8968V-0.103203Z" fill="#AD7979" mask="url(#path-1-inside-1_1054_1553)"/>
<path d="M5.55779 14.5273H5.15095C5.1172 14.6751 5.09937 14.829 5.09937 14.9874C5.09937 15.1442 5.11785 15.2984 5.153 15.4473H5.55779C5.59155 15.2996 5.60938 15.1457 5.60938 14.9874C5.60938 14.829 5.59155 14.6751 5.55779 14.5273Z" fill="#AD7979" stroke="#AD7979" stroke-width="5"/>
<path d="M47.0494 15.4473C47.0156 15.2996 46.9978 15.1456 46.9978 14.9874C46.9978 14.829 47.0156 14.6751 47.0494 14.5273L47.4562 14.5273C47.49 14.6751 47.5078 14.829 47.5078 14.9874C47.5078 15.1456 47.49 15.2996 47.4562 15.4473H47.0494Z" fill="#AD7979" stroke="#AD7979" stroke-width="5"/>
<mask id="path-5-inside-2_1054_1553" fill="white">
<path d="M48.82 10.8369H42.15L44.66 4.63694L44.96 3.88694C45.51 2.52694 44.66 0.906946 43.07 0.266946C42.31 -0.0430539 41.5 -0.0830566 40.78 0.146943C40.03 0.386943 39.47 0.886947 39.2 1.55695L38.89 2.30695L35.44 10.8369L35.27 11.2469H3.31C1.5 11.2469 0.0299988 12.9669 0.0299988 14.7769L0 44.3669C0 46.1769 1.62 47.7969 3.43 47.7969H48.81C50.62 47.7969 52.09 46.3269 52.09 44.5169V19.2169V14.1169C52.1 12.3069 50.63 10.8369 48.82 10.8369ZM39.97 1.86694C40.15 1.42694 40.53 1.09694 41.04 0.936944C41.58 0.766944 42.19 0.796943 42.77 1.03694C43.93 1.50694 44.58 2.64694 44.2 3.57694L44.05 3.94695L39.82 2.23695L39.97 1.86694ZM39.51 3.00694L43.74 4.71694L33.22 30.7269C33.21 30.7569 33.19 30.7769 33.17 30.8069L28.96 29.1069C28.97 29.0769 28.98 29.0469 28.99 29.0169L39.51 3.00694ZM32.68 31.5069L29.42 35.2869C29.09 35.1369 28.77 34.9969 28.48 34.8669L28.76 29.927L32.68 31.5069ZM1.7 18.3869V14.5269C1.7 13.6369 2.43 12.9069 3.32 12.9069H34.61L32.39 18.3869H1.82H1.7ZM50.44 44.5169C50.44 45.4069 49.71 46.1369 48.82 46.1369H3.44C2.55 46.1369 1.82 45.4069 1.82 44.5169V20.0469H31.72L28.22 28.7069C28.21 28.7369 28.2 28.7669 28.19 28.7969L27.99 28.7169L27.61 35.3769L27.87 35.4969C27.93 35.5269 27.99 35.5469 28.04 35.5769L27.78 37.7369C27.76 37.8669 27.94 37.9369 28.01 37.8269L29.22 36.1069C29.27 36.1269 29.31 36.1469 29.36 36.1669L29.64 36.2869L34.06 31.1669L33.94 31.1169C33.95 31.0869 33.97 31.067 33.98 31.037L38.43 20.0469H50.44V44.5169ZM50.44 18.3869H39.1L41.48 12.4969H48.82C49.71 12.4969 50.44 13.2269 50.44 14.1169V18.3869Z"/>
</mask>
<path d="M48.82 10.8369H42.15L44.66 4.63694L44.96 3.88694C45.51 2.52694 44.66 0.906946 43.07 0.266946C42.31 -0.0430539 41.5 -0.0830566 40.78 0.146943C40.03 0.386943 39.47 0.886947 39.2 1.55695L38.89 2.30695L35.44 10.8369L35.27 11.2469H3.31C1.5 11.2469 0.0299988 12.9669 0.0299988 14.7769L0 44.3669C0 46.1769 1.62 47.7969 3.43 47.7969H48.81C50.62 47.7969 52.09 46.3269 52.09 44.5169V19.2169V14.1169C52.1 12.3069 50.63 10.8369 48.82 10.8369ZM39.97 1.86694C40.15 1.42694 40.53 1.09694 41.04 0.936944C41.58 0.766944 42.19 0.796943 42.77 1.03694C43.93 1.50694 44.58 2.64694 44.2 3.57694L44.05 3.94695L39.82 2.23695L39.97 1.86694ZM39.51 3.00694L43.74 4.71694L33.22 30.7269C33.21 30.7569 33.19 30.7769 33.17 30.8069L28.96 29.1069C28.97 29.0769 28.98 29.0469 28.99 29.0169L39.51 3.00694ZM32.68 31.5069L29.42 35.2869C29.09 35.1369 28.77 34.9969 28.48 34.8669L28.76 29.927L32.68 31.5069ZM1.7 18.3869V14.5269C1.7 13.6369 2.43 12.9069 3.32 12.9069H34.61L32.39 18.3869H1.82H1.7ZM50.44 44.5169C50.44 45.4069 49.71 46.1369 48.82 46.1369H3.44C2.55 46.1369 1.82 45.4069 1.82 44.5169V20.0469H31.72L28.22 28.7069C28.21 28.7369 28.2 28.7669 28.19 28.7969L27.99 28.7169L27.61 35.3769L27.87 35.4969C27.93 35.5269 27.99 35.5469 28.04 35.5769L27.78 37.7369C27.76 37.8669 27.94 37.9369 28.01 37.8269L29.22 36.1069C29.27 36.1269 29.31 36.1469 29.36 36.1669L29.64 36.2869L34.06 31.1669L33.94 31.1169C33.95 31.0869 33.97 31.067 33.98 31.037L38.43 20.0469H50.44V44.5169ZM50.44 18.3869H39.1L41.48 12.4969H48.82C49.71 12.4969 50.44 13.2269 50.44 14.1169V18.3869Z" fill="#AD7979"/>
<path d="M42.15 10.8369L37.5154 8.96068L34.7316 15.8369H42.15V10.8369ZM44.66 4.63694L49.2946 6.51321L49.2985 6.50357L49.3024 6.49391L44.66 4.63694ZM44.96 3.88694L40.3247 2.01237L40.3211 2.02117L40.3176 2.02997L44.96 3.88694ZM43.07 0.266946L41.1816 4.89662L41.1923 4.90098L41.203 4.90529L43.07 0.266946ZM40.78 0.146943L39.2585 -4.61595L39.2561 -4.61518L40.78 0.146943ZM39.2 1.55695L43.8208 3.46688L43.8293 3.44639L43.8376 3.42583L39.2 1.55695ZM38.89 2.30695L34.2692 0.397015L34.2619 0.41458L34.2548 0.4322L38.89 2.30695ZM35.44 10.8369L40.0587 12.752L40.0671 12.7319L40.0752 12.7117L35.44 10.8369ZM35.27 11.2469V16.2469H38.6096L39.8887 13.162L35.27 11.2469ZM0.0299988 14.7769L5.03 14.782V14.7769H0.0299988ZM0 44.3669L-5 44.3619V44.3669H0ZM52.09 14.1169L47.0901 14.0893L47.09 14.1031V14.1169H52.09ZM39.97 1.86694L35.3423 -0.0262197L35.3393 -0.0188663L35.3363 -0.0115034L39.97 1.86694ZM41.04 0.936944L42.5367 5.70768L42.5414 5.70619L41.04 0.936944ZM42.77 1.03694L40.8582 5.65703L40.8753 5.66408L40.8924 5.67101L42.77 1.03694ZM44.2 3.57694L39.5715 1.68571L39.5663 1.69833L44.2 3.57694ZM44.05 3.94695L42.176 8.5825L46.8069 10.4546L48.6837 5.82556L44.05 3.94695ZM39.82 2.23695L35.1863 0.358499L33.306 4.99673L37.9461 6.8725L39.82 2.23695ZM39.51 3.00694L41.3839 -1.62861L36.7492 -3.50222L34.8748 1.13218L39.51 3.00694ZM43.74 4.71694L48.3752 6.5917L50.2503 1.95567L45.6139 0.0813933L43.74 4.71694ZM33.22 30.7269L28.5848 28.8522L28.5261 28.9973L28.4766 29.1458L33.22 30.7269ZM33.17 30.8069L31.2979 35.4432L35.0723 36.9673L37.3303 33.5804L33.17 30.8069ZM28.96 29.1069L24.2166 27.5258L22.7306 31.9838L27.0879 33.7432L28.96 29.1069ZM28.99 29.0169L24.3548 27.1422L24.2961 27.2873L24.2466 27.4358L28.99 29.0169ZM32.68 31.5069L36.4664 34.7724L41.0295 29.4814L34.5492 26.8695L32.68 31.5069ZM29.42 35.2869L27.351 39.8388L30.7604 41.3885L33.2064 38.5524L29.42 35.2869ZM28.48 34.8669L23.488 34.584L23.2932 38.0212L26.4347 39.4295L28.48 34.8669ZM28.76 29.927L30.6292 25.2895L24.1626 22.6831L23.768 29.644L28.76 29.927ZM1.7 18.3869H-3.3V23.3869H1.7V18.3869ZM34.61 12.9069L39.2442 14.7843L42.0302 7.90695H34.61V12.9069ZM32.39 18.3869V23.3869H35.7592L37.0242 20.2643L32.39 18.3869ZM1.82 20.0469V15.0469H-3.18V20.0469H1.82ZM31.72 20.0469L36.3557 21.9205L39.1337 15.0469H31.72V20.0469ZM28.22 28.7069L23.5843 26.8334L23.5259 26.9779L23.4766 27.1258L28.22 28.7069ZM28.19 28.7969L26.333 33.4393L31.2565 35.4088L32.9334 30.3781L28.19 28.7969ZM27.99 28.7169L29.847 24.0746L23.394 21.4933L22.9981 28.4321L27.99 28.7169ZM27.61 35.3769L22.6181 35.0921L22.4242 38.4905L25.5148 39.9168L27.61 35.3769ZM27.87 35.4969L30.1061 31.0248L30.0361 30.9898L29.9652 30.9571L27.87 35.4969ZM28.04 35.5769L33.0042 36.1745L33.3915 32.9569L30.6125 31.2895L28.04 35.5769ZM27.78 37.7369L32.7219 38.4972L32.7344 38.416L32.7442 38.3345L27.78 37.7369ZM28.01 37.8269L23.9205 34.9501L23.8539 35.0448L23.7917 35.1426L28.01 37.8269ZM29.22 36.1069L31.0769 31.4646L27.4056 29.996L25.1305 33.2301L29.22 36.1069ZM29.36 36.1669L31.3296 31.5712L31.2736 31.5472L31.2169 31.5246L29.36 36.1669ZM29.64 36.2869L27.6704 40.8826L31.0336 42.3241L33.4248 39.5543L29.64 36.2869ZM34.06 31.1669L37.8448 34.4343L42.3571 29.2073L35.983 26.5515L34.06 31.1669ZM33.94 31.1169L29.1966 29.5358L27.7269 33.9449L32.017 35.7323L33.94 31.1169ZM33.98 31.037L29.3455 29.1604L29.2864 29.3064L29.2366 29.4558L33.98 31.037ZM38.43 20.0469V15.0469H35.0602L33.7955 18.1704L38.43 20.0469ZM50.44 20.0469H55.44V15.0469H50.44V20.0469ZM50.44 18.3869V23.3869H55.44V18.3869H50.44ZM39.1 18.3869L34.4642 16.5137L31.6869 23.3869H39.1V18.3869ZM41.48 12.4969V7.49694H38.1076L36.8442 10.6237L41.48 12.4969ZM48.82 5.83695H42.15V15.8369H48.82V5.83695ZM46.7846 12.7132L49.2946 6.51321L40.0254 2.76068L37.5154 8.96068L46.7846 12.7132ZM49.3024 6.49391L49.6024 5.74391L40.3176 2.02997L40.0176 2.77997L49.3024 6.49391ZM49.5953 5.76151C51.4528 1.1683 48.3652 -2.9915 44.937 -4.3714L41.203 4.90529C40.9407 4.79974 40.6181 4.5664 40.3867 4.12382C40.1481 3.66763 39.9749 2.87734 40.3247 2.01237L49.5953 5.76151ZM44.9584 -4.36273C43.1962 -5.08152 41.1787 -5.22935 39.2585 -4.61594L42.3015 4.90983C41.8213 5.06324 41.4238 4.99541 41.1816 4.89662L44.9584 -4.36273ZM39.2561 -4.61518C37.2331 -3.96782 35.4423 -2.49543 34.5624 -0.311934L43.8376 3.42583C43.4977 4.26933 42.8269 4.74171 42.3039 4.90906L39.2561 -4.61518ZM34.5792 -0.352985L34.2692 0.397015L43.5108 4.21688L43.8208 3.46688L34.5792 -0.352985ZM34.2548 0.4322L30.8048 8.9622L40.0752 12.7117L43.5252 4.18169L34.2548 0.4322ZM30.8213 8.92187L30.6513 9.33187L39.8887 13.162L40.0587 12.752L30.8213 8.92187ZM35.27 6.24694H3.31V16.2469H35.27V6.24694ZM3.31 6.24694C-1.72048 6.24694 -4.97 10.6881 -4.97 14.7769H5.03C5.03 15.1984 4.87687 15.4911 4.69893 15.6878C4.50875 15.898 4.04508 16.2469 3.31 16.2469V6.24694ZM-4.97 14.7719L-5 44.3619L5 44.372L5.03 14.782L-4.97 14.7719ZM-5 44.3669C-5 48.9383 -1.14144 52.7969 3.43 52.7969V42.7969C4.02305 42.7969 4.39439 43.0478 4.57179 43.2252C4.74919 43.4026 5 43.7739 5 44.3669H-5ZM3.43 52.7969H48.81V42.7969H3.43V52.7969ZM48.81 52.7969C53.3814 52.7969 57.09 49.0884 57.09 44.5169H47.09C47.09 43.5655 47.8586 42.7969 48.81 42.7969V52.7969ZM57.09 44.5169V19.2169H47.09V44.5169H57.09ZM57.09 19.2169V14.1169H47.09V19.2169H57.09ZM57.0899 14.1446C57.1153 9.54624 53.386 5.83695 48.82 5.83695V15.8369C47.874 15.8369 47.0847 15.0676 47.0901 14.0893L57.0899 14.1446ZM44.5977 3.76011C44.1389 4.88161 43.2451 5.48542 42.5367 5.70768L39.5433 -3.83379C37.8149 -3.29153 36.1611 -2.02772 35.3423 -0.0262197L44.5977 3.76011ZM42.5414 5.70619C41.8828 5.91354 41.2844 5.83337 40.8582 5.65703L44.6818 -3.58314C43.0956 -4.23949 41.2772 -4.37965 39.5386 -3.8323L42.5414 5.70619ZM40.8924 5.67101C40.496 5.51039 40.0418 5.18236 39.7097 4.59474C39.3724 3.99791 39.0729 2.90582 39.5715 1.68572L48.8285 5.46817C50.643 1.02748 47.3058 -2.52011 44.6476 -3.59713L40.8924 5.67101ZM39.5663 1.69833L39.4163 2.06833L48.6837 5.82556L48.8337 5.45556L39.5663 1.69833ZM45.9239 -0.688604L41.6939 -2.3986L37.9461 6.8725L42.176 8.5825L45.9239 -0.688604ZM44.4537 4.1154L44.6037 3.74539L35.3363 -0.0115034L35.1863 0.358499L44.4537 4.1154ZM37.6361 7.64249L41.8661 9.35249L45.6139 0.0813933L41.3839 -1.62861L37.6361 7.64249ZM39.1048 2.84218L28.5848 28.8522L37.8552 32.6017L48.3752 6.5917L39.1048 2.84218ZM28.4766 29.1458C28.6892 28.508 28.9845 28.0684 29.1021 27.9004C29.145 27.8391 29.1987 27.767 29.1616 27.8172C29.1454 27.8392 29.083 27.9236 29.0098 28.0334L37.3303 33.5804C37.267 33.6753 37.2146 33.746 37.2081 33.7548C37.1807 33.7919 37.2438 33.7073 37.2954 33.6335C37.4305 33.4404 37.7408 32.9759 37.9634 32.3081L28.4766 29.1458ZM35.0421 26.1707L30.8321 24.4707L27.0879 33.7432L31.2979 35.4432L35.0421 26.1707ZM33.7034 30.6881C33.7038 30.687 33.7033 30.6885 33.7037 30.6874C33.7037 30.6873 33.7037 30.6871 33.7038 30.687C33.7038 30.687 33.7038 30.6869 33.7038 30.6869C33.7038 30.6868 33.7039 30.6867 33.7039 30.6867C33.7039 30.6866 33.7039 30.6866 33.7039 30.6865C33.704 30.6864 33.704 30.6864 33.704 30.6863C33.7041 30.6862 33.7041 30.6861 33.7041 30.686C33.7041 30.6859 33.7042 30.6859 33.7042 30.6858C33.7042 30.6857 33.7042 30.6857 33.7042 30.6856C33.7043 30.6856 33.7043 30.6855 33.7043 30.6854C33.7043 30.6854 33.7043 30.6853 33.7044 30.6853C33.7048 30.6839 33.7041 30.686 33.7046 30.6846C33.7046 30.6845 33.7046 30.6844 33.7046 30.6844C33.7047 30.6843 33.7047 30.6843 33.7047 30.6842C33.705 30.6834 33.7045 30.6847 33.7048 30.6839C33.705 30.6834 33.7049 30.6836 33.7051 30.6832C33.7052 30.6827 33.7051 30.6829 33.7053 30.6825C33.7053 30.6823 33.7055 30.6819 33.7055 30.6818C33.7059 30.6807 33.7054 30.6821 33.7058 30.6811C33.7058 30.6809 33.7059 30.6805 33.706 30.6803C33.706 30.6803 33.706 30.6802 33.7061 30.6802C33.7061 30.6801 33.7061 30.6801 33.7061 30.68C33.7061 30.6799 33.7062 30.6799 33.7062 30.6798C33.7062 30.6798 33.7062 30.6797 33.7062 30.6796C33.7064 30.679 33.7063 30.6796 33.7065 30.6789C33.7068 30.6778 33.7063 30.6793 33.7067 30.6782C33.7067 30.6782 33.7067 30.6781 33.7068 30.6781C33.7068 30.678 33.7068 30.6779 33.7068 30.6779C33.7068 30.6778 33.7069 30.6776 33.7069 30.6775C33.7071 30.6771 33.7069 30.6777 33.707 30.6772C33.7071 30.6771 33.7071 30.6771 33.7071 30.677C33.7071 30.6769 33.7071 30.6769 33.7072 30.6768C33.7076 30.6756 33.707 30.6774 33.7074 30.6761C33.7075 30.6757 33.7074 30.6762 33.7075 30.6758C33.7075 30.6757 33.7076 30.6757 33.7076 30.6756C33.7076 30.6755 33.7076 30.6755 33.7076 30.6754C33.7077 30.6754 33.7077 30.6753 33.7077 30.6753C33.7077 30.6752 33.7077 30.6751 33.7078 30.6751C33.708 30.6743 33.7076 30.6755 33.7079 30.6747C33.7079 30.6747 33.7079 30.6746 33.7079 30.6745C33.7079 30.6745 33.708 30.6744 33.708 30.6744C33.708 30.6743 33.708 30.6743 33.708 30.6742C33.7081 30.6741 33.7081 30.6741 33.7081 30.674C33.7086 30.6725 33.7078 30.6749 33.7083 30.6733C33.7085 30.6728 33.7084 30.6731 33.7086 30.6726C33.7087 30.6721 33.7086 30.6724 33.7088 30.6719C33.7089 30.6716 33.7089 30.6715 33.709 30.6712C33.7091 30.6711 33.7091 30.6711 33.7091 30.671C33.7091 30.671 33.7091 30.6709 33.7092 30.6709C33.7092 30.6708 33.7092 30.6707 33.7092 30.6707C33.7092 30.6706 33.7093 30.6706 33.7093 30.6705C33.7096 30.6694 33.7091 30.6709 33.7095 30.6698C33.7096 30.6696 33.7097 30.6693 33.7097 30.6691C33.7098 30.669 33.7098 30.669 33.7098 30.6689C33.7098 30.6689 33.7098 30.6688 33.7099 30.6687C33.7099 30.6687 33.7099 30.6686 33.7099 30.6686C33.7099 30.6685 33.71 30.6685 33.71 30.6684C33.7102 30.6678 33.71 30.6683 33.7102 30.6677C33.7106 30.6666 33.7101 30.6681 33.7104 30.667C33.7105 30.6669 33.7105 30.6669 33.7105 30.6668C33.7105 30.6668 33.7105 30.6667 33.7106 30.6666C33.7106 30.6666 33.7106 30.6665 33.7106 30.6665C33.7106 30.6664 33.7107 30.6663 33.7107 30.6663C33.7107 30.6661 33.7107 30.6661 33.7108 30.6659C33.7108 30.6659 33.7108 30.6658 33.7109 30.6658C33.7109 30.6657 33.7109 30.6656 33.7109 30.6656C33.7113 30.6643 33.7107 30.6661 33.7112 30.6649C33.7112 30.6648 33.7112 30.6648 33.7112 30.6647C33.7112 30.6646 33.7112 30.6646 33.7113 30.6645C33.7113 30.6643 33.7113 30.6644 33.7114 30.6642C33.7114 30.6641 33.7114 30.6641 33.7114 30.664C33.7115 30.6639 33.7115 30.6639 33.7115 30.6638C33.7118 30.6629 33.7113 30.6644 33.7116 30.6635C33.7116 30.6634 33.7117 30.6634 33.7117 30.6633C33.7117 30.6632 33.7117 30.6632 33.7117 30.6631C33.7118 30.6631 33.7118 30.663 33.7118 30.6629C33.7118 30.6629 33.7118 30.6628 33.7119 30.6628C33.7124 30.6612 33.7116 30.6636 33.7121 30.6621C33.7122 30.6618 33.7122 30.6617 33.7123 30.6614C33.7125 30.6607 33.7123 30.6613 33.7126 30.6607C33.7127 30.6603 33.7127 30.6603 33.7128 30.66C33.7129 30.6596 33.7129 30.6596 33.713 30.6593C33.7133 30.6583 33.7129 30.6595 33.7133 30.6586C33.7134 30.6582 33.7134 30.6582 33.7135 30.6578C33.7135 30.6578 33.7135 30.6577 33.7136 30.6577C33.7136 30.6576 33.7136 30.6576 33.7136 30.6575C33.7136 30.6574 33.7136 30.6574 33.7137 30.6573C33.7137 30.6573 33.7137 30.6572 33.7137 30.6571C33.7139 30.6565 33.7138 30.6571 33.714 30.6564C33.7143 30.6555 33.7139 30.6567 33.7142 30.6557C33.7142 30.6557 33.7142 30.6556 33.7143 30.6556C33.7143 30.6555 33.7143 30.6554 33.7143 30.6554C33.7145 30.6549 33.7143 30.6555 33.7144 30.655C33.7149 30.6536 33.7141 30.6561 33.7145 30.6547C33.7146 30.6546 33.7146 30.6546 33.7146 30.6545C33.7146 30.6544 33.7146 30.6544 33.7147 30.6543C33.7151 30.6531 33.7145 30.6549 33.7149 30.6536C33.7153 30.6525 33.7147 30.6544 33.715 30.6533C33.715 30.6532 33.7151 30.6532 33.7151 30.6531C33.7151 30.653 33.7151 30.653 33.7151 30.6529C33.7153 30.6523 33.715 30.6532 33.7153 30.6526C33.7153 30.6525 33.7153 30.6525 33.7153 30.6524C33.7153 30.6523 33.7153 30.6523 33.7154 30.6522C33.7154 30.6522 33.7154 30.6521 33.7154 30.652C33.7154 30.652 33.7155 30.6519 33.7155 30.6519C33.7155 30.6518 33.7155 30.6518 33.7155 30.6517C33.7156 30.6516 33.7156 30.6516 33.7156 30.6515C33.7161 30.65 33.7153 30.6524 33.7158 30.6508C33.7159 30.6505 33.716 30.6504 33.7161 30.6501C33.7163 30.6495 33.7161 30.65 33.7163 30.6494C33.7164 30.6491 33.7164 30.649 33.7165 30.6487C33.7166 30.6486 33.7166 30.6486 33.7166 30.6485C33.7166 30.6485 33.7166 30.6484 33.7167 30.6484C33.7167 30.6483 33.7167 30.6482 33.7167 30.6482C33.7167 30.6481 33.7168 30.6481 33.7168 30.648C33.7171 30.6471 33.7167 30.6482 33.717 30.6473C33.7171 30.647 33.7171 30.6469 33.7172 30.6466C33.7173 30.6465 33.7173 30.6465 33.7173 30.6464C33.7173 30.6464 33.7173 30.6463 33.7174 30.6462C33.7174 30.6462 33.7174 30.6461 33.7174 30.6461C33.7174 30.646 33.7175 30.646 33.7175 30.6459C33.7177 30.6453 33.7175 30.6458 33.7177 30.6452C33.718 30.6443 33.7176 30.6454 33.7179 30.6445C33.718 30.6444 33.718 30.6444 33.718 30.6443C33.718 30.6443 33.718 30.6442 33.7181 30.6441C33.7181 30.6441 33.7181 30.644 33.7181 30.644C33.7181 30.6439 33.7182 30.6438 33.7182 30.6438C33.7182 30.6437 33.7182 30.6437 33.7182 30.6436C33.7183 30.6436 33.7183 30.6435 33.7183 30.6434C33.7183 30.6434 33.7183 30.6433 33.7184 30.6433C33.7184 30.6432 33.7184 30.6431 33.7184 30.6431C33.7188 30.6418 33.7182 30.6436 33.7187 30.6424C33.7188 30.6421 33.7187 30.6423 33.7188 30.642C33.7188 30.642 33.7188 30.6419 33.7188 30.6419C33.7188 30.6418 33.7189 30.6417 33.7189 30.6417C33.7189 30.6416 33.7189 30.6416 33.7189 30.6415C33.719 30.6414 33.719 30.6414 33.719 30.6413L33.7191 30.641C33.7191 30.6409 33.7192 30.6409 33.7192 30.6408C33.7192 30.6407 33.7192 30.6407 33.7192 30.6406C33.7193 30.6406 33.7193 30.6405 33.7193 30.6404C33.7193 30.6404 33.7193 30.6403 33.7194 30.6403C33.7199 30.6387 33.7191 30.6411 33.7196 30.6396C33.7197 30.6393 33.7197 30.6392 33.7198 30.6389C33.72 30.6382 33.7198 30.6388 33.7201 30.6382C33.7202 30.6378 33.7202 30.6378 33.7203 30.6375C33.7204 30.6371 33.7204 30.6371 33.7205 30.6368C33.7208 30.6358 33.7204 30.637 33.7208 30.6361C33.7209 30.6357 33.7209 30.6357 33.721 30.6353C33.721 30.6353 33.721 30.6352 33.7211 30.6352C33.7211 30.6351 33.7211 30.6351 33.7211 30.635C33.7211 30.6349 33.7211 30.6349 33.7212 30.6348C33.7212 30.6348 33.7212 30.6347 33.7212 30.6346C33.7214 30.634 33.7213 30.6346 33.7215 30.6339C33.7218 30.633 33.7214 30.6342 33.7217 30.6332C33.7217 30.6332 33.7217 30.6331 33.7218 30.6331C33.7218 30.633 33.7218 30.6329 33.7218 30.6329C33.7218 30.6328 33.7219 30.6328 33.7219 30.6327C33.7219 30.6327 33.7219 30.6326 33.7219 30.6325C33.7222 30.6318 33.7218 30.633 33.722 30.6322C33.7221 30.6321 33.7221 30.6321 33.7221 30.632C33.7221 30.632 33.7221 30.6319 33.7222 30.6318C33.7226 30.6306 33.722 30.6324 33.7224 30.6311C33.7226 30.6307 33.7224 30.6312 33.7225 30.6308C33.7225 30.6307 33.7226 30.6307 33.7226 30.6306C33.7226 30.6305 33.7226 30.6305 33.7226 30.6304C33.7227 30.6304 33.7227 30.6303 33.7227 30.6303C33.7227 30.6302 33.7227 30.6301 33.7228 30.6301C33.723 30.6295 33.7227 30.6304 33.7229 30.6297C33.7229 30.6297 33.7229 30.6296 33.7229 30.6295C33.7229 30.6295 33.723 30.6294 33.723 30.6294C33.723 30.6293 33.723 30.6293 33.723 30.6292C33.7231 30.6291 33.7231 30.6291 33.7231 30.629C33.7236 30.6275 33.7228 30.6299 33.7233 30.6283C33.7234 30.628 33.7235 30.6279 33.7236 30.6276C33.7238 30.627 33.7236 30.6275 33.7238 30.6269C33.7239 30.6266 33.7239 30.6265 33.724 30.6262C33.7241 30.6262 33.7241 30.6261 33.7241 30.626C33.7241 30.626 33.7241 30.6259 33.7242 30.6259C33.7242 30.6258 33.7242 30.6257 33.7242 30.6257C33.7242 30.6256 33.7243 30.6256 33.7243 30.6255C33.7246 30.6246 33.7242 30.6257 33.7245 30.6248C33.7246 30.6245 33.7246 30.6244 33.7247 30.6241C33.725 30.6235 33.7247 30.6244 33.7249 30.6237C33.7249 30.6237 33.7249 30.6236 33.7249 30.6236C33.7249 30.6235 33.725 30.6235 33.725 30.6234C33.7252 30.6228 33.725 30.6233 33.7252 30.6227C33.7255 30.6218 33.7251 30.6229 33.7254 30.622C33.7255 30.6218 33.7255 30.6219 33.7256 30.6216C33.7256 30.6216 33.7256 30.6215 33.7256 30.6215C33.7256 30.6214 33.7257 30.6213 33.7257 30.6213C33.7257 30.6211 33.7257 30.6211 33.7258 30.6209C33.7258 30.6209 33.7258 30.6208 33.7259 30.6208C33.7259 30.6207 33.7259 30.6206 33.7259 30.6206C33.7263 30.6193 33.7257 30.6211 33.7262 30.6199C33.7264 30.6193 33.7261 30.6202 33.7263 30.6195C33.7263 30.6193 33.7263 30.6194 33.7264 30.6192C33.7268 30.6179 33.7261 30.6201 33.7265 30.6188C33.7268 30.6179 33.7263 30.6194 33.7266 30.6185C33.7266 30.6184 33.7267 30.6184 33.7267 30.6183C33.7267 30.6182 33.7267 30.6182 33.7267 30.6181C33.7268 30.6181 33.7268 30.618 33.7268 30.6179C33.7268 30.6179 33.7268 30.6178 33.7269 30.6178C33.7274 30.6162 33.7266 30.6186 33.7271 30.6171C33.7272 30.6166 33.7272 30.6168 33.7273 30.6164C33.7275 30.6159 33.7274 30.6161 33.7276 30.6157C33.7277 30.6154 33.7277 30.6153 33.7278 30.615C33.7279 30.6146 33.7279 30.6146 33.728 30.6143C33.7284 30.6132 33.7279 30.6146 33.7283 30.6136C33.7283 30.6134 33.7284 30.613 33.7285 30.6129C33.7285 30.6128 33.7285 30.6127 33.7285 30.6127C33.7286 30.6126 33.7286 30.6126 33.7286 30.6125C33.7286 30.6124 33.7286 30.6124 33.7287 30.6123C33.7287 30.6123 33.7287 30.6122 33.7287 30.6121C33.7289 30.6115 33.7288 30.6121 33.729 30.6114C33.7293 30.6104 33.7288 30.6118 33.7292 30.6107C33.7292 30.6107 33.7292 30.6106 33.7293 30.6106C33.7293 30.6105 33.7293 30.6104 33.7293 30.6104C33.7295 30.6098 33.7292 30.6106 33.7294 30.61C33.7295 30.61 33.7295 30.6099 33.7295 30.6099C33.7295 30.6098 33.7295 30.6097 33.7295 30.6097C33.7296 30.6096 33.7296 30.6096 33.7296 30.6095C33.7296 30.6095 33.7296 30.6094 33.7297 30.6093C33.7301 30.6081 33.7295 30.6099 33.7299 30.6086C33.7299 30.6086 33.7299 30.6085 33.73 30.6085C33.73 30.6084 33.73 30.6083 33.73 30.6083C33.73 30.6082 33.7301 30.6082 33.7301 30.6081C33.7301 30.608 33.7301 30.608 33.7301 30.6079C33.7302 30.6079 33.7302 30.6078 33.7302 30.6078C33.7302 30.6077 33.7302 30.6076 33.7303 30.6076C33.7303 30.6075 33.7303 30.6075 33.7303 30.6074C33.7303 30.6073 33.7303 30.6073 33.7304 30.6072C33.7304 30.6072 33.7304 30.6071 33.7304 30.607C33.7304 30.607 33.7305 30.6069 33.7305 30.6069C33.7305 30.6068 33.7305 30.6068 33.7305 30.6067C33.7306 30.6066 33.7306 30.6066 33.7306 30.6065C33.7311 30.6051 33.7304 30.6072 33.7308 30.6058C33.731 30.6054 33.7309 30.6056 33.7311 30.6051C33.7312 30.6046 33.7311 30.6049 33.7313 30.6044C33.7315 30.6039 33.7314 30.6042 33.7315 30.6037C33.7316 30.6037 33.7316 30.6036 33.7316 30.6035C33.7316 30.6035 33.7316 30.6034 33.7317 30.6034C33.7317 30.6033 33.7317 30.6032 33.7317 30.6032C33.7317 30.6031 33.7318 30.6031 33.7318 30.603C33.7321 30.6019 33.7316 30.6034 33.732 30.6023C33.7324 30.6012 33.7319 30.6027 33.7322 30.6016C33.7323 30.6015 33.7323 30.6015 33.7323 30.6014C33.7323 30.6014 33.7323 30.6013 33.7324 30.6012C33.7324 30.6012 33.7324 30.6011 33.7324 30.6011C33.7324 30.601 33.7325 30.601 33.7325 30.6009C33.7326 30.6004 33.7326 30.6007 33.7327 30.6002C33.7331 30.5991 33.7326 30.6006 33.7329 30.5995C33.7331 30.5992 33.733 30.5995 33.7331 30.5991C33.7331 30.5991 33.7331 30.599 33.7331 30.599C33.7331 30.5989 33.7332 30.5988 33.7332 30.5988C33.7334 30.5982 33.7331 30.5991 33.7333 30.5984C33.7333 30.5984 33.7333 30.5983 33.7334 30.5983C33.7334 30.5982 33.7334 30.5981 33.7334 30.5981L24.2466 27.4358C24.2465 27.436 24.2464 27.4364 24.2463 27.4365C24.2462 27.4368 24.2463 27.4366 24.2462 27.4369C24.2462 27.4369 24.2462 27.437 24.2462 27.437C24.2462 27.4371 24.2461 27.4372 24.2461 27.4372C24.2461 27.4373 24.2461 27.4373 24.2461 27.4374C24.246 27.4374 24.246 27.4375 24.246 27.4376C24.2459 27.4377 24.2459 27.4378 24.2459 27.4379C24.2459 27.438 24.2458 27.438 24.2458 27.4381C24.2458 27.4382 24.2458 27.4382 24.2458 27.4383C24.2457 27.4383 24.2457 27.4384 24.2457 27.4384C24.2457 27.4385 24.2457 27.4386 24.2456 27.4386C24.2452 27.44 24.2459 27.4379 24.2454 27.4393C24.2454 27.4394 24.2453 27.4396 24.2453 27.4397C24.2452 27.4401 24.2453 27.4396 24.2452 27.44C24.2451 27.4402 24.2451 27.4402 24.2451 27.4404C24.245 27.4404 24.245 27.4405 24.245 27.4406C24.245 27.4406 24.245 27.4407 24.2449 27.4407C24.2448 27.4412 24.2449 27.441 24.2447 27.4414C24.2447 27.4416 24.2445 27.442 24.2445 27.4421C24.2443 27.4428 24.2444 27.4422 24.2442 27.4428C24.2442 27.443 24.2441 27.4434 24.244 27.4435C24.244 27.4436 24.244 27.4437 24.2439 27.4437C24.2439 27.4438 24.2439 27.4438 24.2439 27.4439C24.2439 27.444 24.2438 27.444 24.2438 27.4441C24.2438 27.4441 24.2438 27.4442 24.2438 27.4442C24.2436 27.4449 24.2437 27.4443 24.2435 27.4449C24.243 27.4465 24.2438 27.4441 24.2433 27.4457C24.2433 27.4457 24.2433 27.4458 24.2432 27.4458C24.2432 27.4459 24.2432 27.4459 24.2432 27.446C24.2432 27.4461 24.2431 27.4461 24.2431 27.4462C24.2431 27.4462 24.2431 27.4463 24.2431 27.4464C24.2429 27.4468 24.2431 27.4462 24.2429 27.4467C24.2429 27.4468 24.2429 27.4468 24.2429 27.4469C24.2429 27.4469 24.2429 27.447 24.2428 27.4471C24.2424 27.4483 24.243 27.4465 24.2426 27.4478C24.2423 27.4486 24.2428 27.4473 24.2425 27.4481C24.2424 27.4483 24.2424 27.4483 24.2424 27.4485C24.2423 27.4485 24.2423 27.4486 24.2423 27.4486C24.2423 27.4487 24.2423 27.4488 24.2422 27.4488C24.242 27.4496 24.2424 27.4484 24.2421 27.4492C24.2421 27.4492 24.2421 27.4493 24.2421 27.4493C24.2421 27.4494 24.242 27.4495 24.242 27.4495C24.242 27.4496 24.242 27.4496 24.242 27.4497C24.2419 27.4498 24.2419 27.4498 24.2419 27.4499C24.2414 27.4514 24.2422 27.449 24.2417 27.4506C24.2415 27.451 24.2416 27.4508 24.2414 27.4513C24.2413 27.4517 24.2413 27.4515 24.2412 27.452C24.2411 27.4523 24.2411 27.4524 24.241 27.4527C24.2409 27.4527 24.2409 27.4528 24.2409 27.4529C24.2409 27.4529 24.2409 27.453 24.2408 27.453C24.2408 27.4531 24.2408 27.4532 24.2408 27.4532C24.2408 27.4533 24.2407 27.4533 24.2407 27.4534C24.2404 27.4545 24.2409 27.453 24.2405 27.4541C24.2404 27.4542 24.2403 27.4546 24.2403 27.4548C24.2402 27.4549 24.2402 27.4549 24.2402 27.455C24.2402 27.455 24.2402 27.4551 24.2401 27.4551C24.2401 27.4552 24.2401 27.4553 24.2401 27.4553C24.2401 27.4554 24.24 27.4554 24.24 27.4555C24.2398 27.4561 24.24 27.4556 24.2398 27.4562C24.2397 27.4564 24.2396 27.4567 24.2395 27.4569C24.2392 27.4578 24.2396 27.4567 24.2393 27.4576C24.2392 27.4579 24.2392 27.458 24.2391 27.4583C24.2387 27.4596 24.2393 27.4578 24.2388 27.459C24.2387 27.4593 24.2388 27.459 24.2387 27.4594C24.2386 27.4598 24.2388 27.4592 24.2386 27.4597C24.2386 27.4598 24.2386 27.4598 24.2386 27.4599C24.2385 27.4599 24.2385 27.46 24.2385 27.4601C24.2382 27.461 24.2387 27.4595 24.2384 27.4604C24.2384 27.4605 24.2383 27.4605 24.2383 27.4606C24.2383 27.4607 24.2383 27.4607 24.2383 27.4608C24.2382 27.4608 24.2382 27.4609 24.2382 27.4609C24.2382 27.461 24.2382 27.4611 24.2381 27.4611C24.2378 27.4622 24.2383 27.4607 24.2379 27.4618C24.2378 27.4621 24.2378 27.4622 24.2377 27.4625C24.2374 27.4635 24.2379 27.4619 24.2376 27.4629C24.2372 27.4638 24.2378 27.4623 24.2374 27.4632C24.2373 27.4635 24.2373 27.4636 24.2372 27.4639C24.2368 27.4652 24.2374 27.4634 24.237 27.4646C24.2367 27.4656 24.2371 27.4644 24.2367 27.4653C24.2365 27.4661 24.2368 27.4653 24.2365 27.466C24.2365 27.4661 24.2365 27.4662 24.2364 27.4662C24.2364 27.4663 24.2364 27.4663 24.2364 27.4664C24.2364 27.4665 24.2363 27.4665 24.2363 27.4666C24.2363 27.4666 24.2363 27.4667 24.2363 27.4667C24.2361 27.4674 24.2362 27.4668 24.236 27.4674C24.2357 27.4684 24.2361 27.4672 24.2358 27.4682C24.2358 27.4682 24.2358 27.4683 24.2357 27.4683C24.2357 27.4684 24.2357 27.4684 24.2357 27.4685C24.2355 27.469 24.2357 27.4684 24.2356 27.4689C24.2351 27.4703 24.2359 27.4678 24.2354 27.4692C24.2354 27.4693 24.2354 27.4693 24.2354 27.4694C24.2354 27.4694 24.2354 27.4695 24.2353 27.4696C24.2349 27.4708 24.2355 27.469 24.2351 27.4703C24.2347 27.4714 24.2353 27.4695 24.235 27.4706C24.235 27.4707 24.2349 27.4707 24.2349 27.4708C24.2349 27.4708 24.2349 27.4709 24.2349 27.471C24.2347 27.4716 24.235 27.4707 24.2347 27.4713C24.2347 27.4714 24.2347 27.4714 24.2347 27.4715C24.2347 27.4715 24.2346 27.4716 24.2346 27.4717C24.2346 27.4717 24.2346 27.4718 24.2346 27.4718C24.2346 27.4719 24.2345 27.472 24.2345 27.472C24.2345 27.4721 24.2345 27.4721 24.2345 27.4722C24.2344 27.4723 24.2344 27.4723 24.2344 27.4724C24.2339 27.4739 24.2347 27.4715 24.2342 27.4731C24.2337 27.4743 24.2343 27.4725 24.2339 27.4738C24.2339 27.4738 24.2339 27.4739 24.2339 27.474C24.2338 27.474 24.2338 27.4741 24.2338 27.4741C24.2332 27.4758 24.2343 27.4728 24.2337 27.4745C24.2336 27.4748 24.2336 27.4749 24.2335 27.4752C24.2334 27.4752 24.2334 27.4753 24.2334 27.4754C24.2334 27.4754 24.2334 27.4755 24.2333 27.4755C24.2333 27.4756 24.2333 27.4757 24.2333 27.4757C24.2333 27.4758 24.2332 27.4758 24.2332 27.4759C24.2326 27.4778 24.2336 27.4747 24.233 27.4766C24.2329 27.4769 24.2329 27.477 24.2328 27.4773C24.2327 27.4774 24.2327 27.4774 24.2327 27.4775C24.2327 27.4775 24.2327 27.4776 24.2326 27.4776C24.2326 27.4777 24.2326 27.4778 24.2326 27.4778C24.2326 27.4779 24.2325 27.4779 24.2325 27.478C24.2323 27.4786 24.2325 27.4781 24.2323 27.4787C24.232 27.4796 24.2324 27.4785 24.232 27.4794C24.232 27.4795 24.232 27.4795 24.232 27.4796C24.232 27.4796 24.232 27.4797 24.2319 27.4798C24.2319 27.4798 24.2319 27.4799 24.2319 27.4799C24.2319 27.48 24.2318 27.48 24.2318 27.4801C24.2318 27.4802 24.2318 27.4802 24.2318 27.4803C24.2317 27.4803 24.2317 27.4804 24.2317 27.4805C24.2317 27.4805 24.2317 27.4806 24.2316 27.4806C24.2316 27.4807 24.2316 27.4807 24.2316 27.4808C24.2312 27.4821 24.2318 27.4803 24.2313 27.4815C24.2313 27.4816 24.2313 27.4818 24.2312 27.4819C24.2312 27.4819 24.2312 27.482 24.2312 27.482C24.2312 27.4821 24.2311 27.4822 24.2311 27.4822C24.2311 27.4823 24.2311 27.4823 24.2311 27.4824C24.231 27.4824 24.231 27.4825 24.231 27.4826L24.2309 27.4829C24.2309 27.483 24.2308 27.483 24.2308 27.4831C24.2308 27.4832 24.2308 27.4832 24.2308 27.4833C24.2307 27.4833 24.2307 27.4834 24.2307 27.4834C24.2307 27.4835 24.2307 27.4836 24.2306 27.4836C24.2301 27.4852 24.2309 27.4828 24.2304 27.4843C24.2303 27.4846 24.2303 27.4847 24.2302 27.485C24.2302 27.4851 24.2301 27.4851 24.2301 27.4852C24.2301 27.4853 24.2301 27.4853 24.2301 27.4854C24.23 27.4854 24.23 27.4855 24.23 27.4856C24.23 27.4856 24.23 27.4857 24.2299 27.4857C24.2297 27.4865 24.23 27.4856 24.2297 27.4864C24.2296 27.4867 24.2296 27.4868 24.2295 27.4871C24.2288 27.489 24.2299 27.486 24.2292 27.4878C24.229 27.4886 24.2294 27.4874 24.2291 27.4882C24.229 27.4885 24.2291 27.4882 24.229 27.4885C24.229 27.4886 24.229 27.4887 24.2289 27.4887C24.2289 27.4888 24.2289 27.4888 24.2289 27.4889C24.2289 27.489 24.2288 27.489 24.2288 27.4891C24.2288 27.4891 24.2288 27.4892 24.2288 27.4892C24.2286 27.4899 24.2287 27.4893 24.2285 27.4899C24.2282 27.4909 24.2286 27.4897 24.2283 27.4907C24.2283 27.4907 24.2283 27.4908 24.2282 27.4908C24.2282 27.4909 24.2282 27.4909 24.2282 27.491C24.2282 27.4911 24.2281 27.4911 24.2281 27.4912C24.2281 27.4912 24.2281 27.4913 24.2281 27.4914C24.2278 27.4921 24.2282 27.4909 24.2279 27.4917C24.2279 27.4918 24.2279 27.4918 24.2279 27.4919C24.2279 27.4919 24.2279 27.492 24.2278 27.4921C24.2274 27.4933 24.228 27.4915 24.2276 27.4928C24.2274 27.4934 24.2276 27.4928 24.2274 27.4935C24.2273 27.4935 24.2273 27.4936 24.2273 27.4936C24.2273 27.4937 24.2273 27.4938 24.2272 27.4938C24.227 27.4944 24.2273 27.4935 24.2271 27.4942C24.2271 27.4942 24.2271 27.4943 24.2271 27.4943C24.2271 27.4944 24.227 27.4945 24.227 27.4945C24.227 27.4946 24.227 27.4946 24.227 27.4947C24.2269 27.4948 24.2269 27.4948 24.2269 27.4949C24.2264 27.4964 24.2272 27.494 24.2267 27.4956C24.2266 27.4956 24.2266 27.4957 24.2266 27.4957C24.2266 27.4958 24.2266 27.4959 24.2265 27.4959C24.2265 27.496 24.2265 27.496 24.2265 27.4961C24.2265 27.4962 24.2264 27.4962 24.2264 27.4963C24.2262 27.4969 24.2264 27.4964 24.2262 27.497C24.2262 27.497 24.2262 27.4971 24.2261 27.4972C24.2261 27.4972 24.2261 27.4973 24.2261 27.4973C24.2261 27.4974 24.226 27.4974 24.226 27.4975C24.226 27.4976 24.226 27.4976 24.226 27.4977C24.2259 27.4977 24.2259 27.4978 24.2259 27.4979C24.2259 27.4979 24.2259 27.498 24.2258 27.498C24.2258 27.4981 24.2258 27.4981 24.2258 27.4982C24.2258 27.4983 24.2257 27.4983 24.2257 27.4984C24.2251 27.5003 24.2261 27.4972 24.2255 27.4991C24.2254 27.4994 24.2254 27.4995 24.2253 27.4998C24.2252 27.4999 24.2251 27.5003 24.225 27.5005C24.225 27.5006 24.2248 27.501 24.2248 27.5012C24.2245 27.5021 24.2249 27.501 24.2246 27.5019C24.2245 27.502 24.2245 27.502 24.2245 27.5021C24.2245 27.5021 24.2245 27.5022 24.2244 27.5023C24.2244 27.5023 24.2244 27.5024 24.2244 27.5024C24.2244 27.5025 24.2243 27.5025 24.2243 27.5026C24.2243 27.5028 24.2243 27.5028 24.2242 27.503C24.2242 27.503 24.2242 27.5031 24.2241 27.5031C24.2241 27.5032 24.2241 27.5032 24.2241 27.5033C24.224 27.5036 24.224 27.5037 24.2238 27.504C24.2236 27.5046 24.2239 27.5037 24.2237 27.5044C24.2237 27.5046 24.2237 27.5045 24.2236 27.5047C24.223 27.5064 24.2241 27.5033 24.2235 27.5051C24.2232 27.506 24.2237 27.5045 24.2234 27.5054C24.2234 27.5055 24.2233 27.5055 24.2233 27.5056C24.2233 27.5056 24.2233 27.5057 24.2233 27.5058C24.2232 27.5058 24.2232 27.5059 24.2232 27.5059C24.2232 27.506 24.2232 27.5061 24.2231 27.5061C24.2226 27.5077 24.2234 27.5053 24.2229 27.5068C24.2228 27.5073 24.2228 27.5071 24.2227 27.5075C24.2225 27.508 24.2226 27.5078 24.2224 27.5082C24.2223 27.5085 24.2223 27.5086 24.2222 27.5089C24.2221 27.5092 24.2221 27.5093 24.222 27.5096C24.2216 27.5107 24.2221 27.5092 24.2217 27.5103C24.2217 27.5105 24.2216 27.5109 24.2215 27.511C24.2215 27.5111 24.2215 27.5112 24.2214 27.5112C24.2214 27.5113 24.2214 27.5113 24.2214 27.5114C24.2214 27.5114 24.2213 27.5115 24.2213 27.5116C24.2213 27.5116 24.2213 27.5117 24.2213 27.5117C24.2211 27.5124 24.2212 27.5118 24.221 27.5124C24.2208 27.5131 24.221 27.5125 24.2208 27.5131C24.2208 27.5132 24.2208 27.5133 24.2207 27.5133C24.2207 27.5134 24.2207 27.5134 24.2207 27.5135C24.2207 27.5136 24.2206 27.5138 24.2206 27.5139C24.2204 27.5143 24.2206 27.5137 24.2204 27.5142C24.2204 27.5143 24.2204 27.5143 24.2204 27.5144C24.2204 27.5144 24.2204 27.5145 24.2203 27.5146C24.2199 27.5158 24.2205 27.514 24.2201 27.5153C24.22 27.5156 24.2201 27.5152 24.22 27.5156C24.22 27.5157 24.2199 27.5157 24.2199 27.5158C24.2199 27.5158 24.2199 27.5159 24.2199 27.516C24.2198 27.516 24.2198 27.5161 24.2198 27.5161C24.2198 27.5162 24.2198 27.5163 24.2197 27.5163C24.2195 27.5171 24.2199 27.5159 24.2196 27.5167C24.2196 27.5167 24.2196 27.5168 24.2196 27.5168C24.2196 27.5169 24.2195 27.517 24.2195 27.517C24.2195 27.5171 24.2195 27.5171 24.2195 27.5172C24.2194 27.5173 24.2194 27.5173 24.2194 27.5174C24.2189 27.5188 24.2196 27.5167 24.2192 27.5181C24.219 27.5185 24.2191 27.5183 24.2189 27.5188C24.2186 27.5197 24.219 27.5185 24.2187 27.5195C24.2185 27.5199 24.2186 27.5197 24.2185 27.5202C24.2184 27.5202 24.2184 27.5203 24.2184 27.5204C24.2184 27.5204 24.2184 27.5205 24.2183 27.5205C24.2183 27.5206 24.2183 27.5206 24.2183 27.5207C24.2183 27.5208 24.2182 27.5208 24.2182 27.5209C24.2177 27.5224 24.2185 27.52 24.218 27.5216C24.2178 27.5222 24.218 27.5217 24.2178 27.5223C24.2177 27.5223 24.2177 27.5224 24.2177 27.5225C24.2177 27.5225 24.2177 27.5226 24.2176 27.5226C24.2176 27.5227 24.2176 27.5228 24.2176 27.5228C24.2176 27.5229 24.2175 27.5229 24.2175 27.523C24.2174 27.5235 24.2174 27.5232 24.2173 27.5237C24.2171 27.5243 24.2173 27.5238 24.2171 27.5244C24.2169 27.5247 24.2169 27.5248 24.2168 27.5251C24.2167 27.5256 24.2167 27.5253 24.2166 27.5258L33.7034 30.6881ZM33.6252 30.8917L44.1452 4.8817L34.8748 1.13218L24.3548 27.1422L33.6252 30.8917ZM28.8936 28.2415L25.6336 32.0215L33.2064 38.5524L36.4664 34.7724L28.8936 28.2415ZM31.489 30.7351C31.155 30.5833 30.749 30.4047 30.5253 30.3044L26.4347 39.4295C26.791 39.5892 27.025 39.6906 27.351 39.8388L31.489 30.7351ZM33.472 35.1499L33.752 30.2099L23.768 29.644L23.488 34.584L33.472 35.1499ZM26.8908 34.5644L30.8108 36.1444L34.5492 26.8695L30.6292 25.2895L26.8908 34.5644ZM6.7 18.3869V14.5269H-3.3V18.3869H6.7ZM6.7 14.5269C6.7 16.3984 5.19139 17.9069 3.32 17.9069V7.90695C-0.331393 7.90695 -3.3 10.8755 -3.3 14.5269H6.7ZM3.32 17.9069H34.61V7.90695H3.32V17.9069ZM29.9758 11.0296L27.7558 16.5096L37.0242 20.2643L39.2442 14.7843L29.9758 11.0296ZM32.39 13.3869H1.82V23.3869H32.39V13.3869ZM1.82 13.3869H1.7V23.3869H1.82V13.3869ZM45.44 44.5169C45.44 42.6455 46.9486 41.1369 48.82 41.1369V51.1369C52.4714 51.1369 55.44 48.1684 55.44 44.5169H45.44ZM48.82 41.1369H3.44V51.1369H48.82V41.1369ZM3.44 41.1369C5.3114 41.1369 6.82 42.6455 6.82 44.5169H-3.18C-3.18 48.1684 -0.211391 51.1369 3.44 51.1369V41.1369ZM6.82 44.5169V20.0469H-3.18V44.5169H6.82ZM1.82 25.0469H31.72V15.0469H1.82V25.0469ZM27.0843 18.1734L23.5843 26.8334L32.8557 30.5805L36.3557 21.9205L27.0843 18.1734ZM23.4766 27.1258C23.4765 27.126 23.4764 27.1264 23.4763 27.1265C23.4762 27.1268 23.4763 27.1266 23.4762 27.1269C23.4762 27.1269 23.4762 27.127 23.4762 27.127C23.4761 27.1271 23.4761 27.1272 23.4761 27.1272C23.4761 27.1273 23.4761 27.1273 23.476 27.1274C23.476 27.1275 23.476 27.1275 23.476 27.1276C23.4759 27.1277 23.4759 27.1278 23.4759 27.1279C23.4759 27.128 23.4758 27.128 23.4758 27.1281C23.4758 27.1282 23.4758 27.1282 23.4758 27.1283C23.4757 27.1283 23.4757 27.1284 23.4757 27.1284C23.4757 27.1285 23.4757 27.1286 23.4756 27.1286C23.4752 27.13 23.4759 27.1279 23.4754 27.1293C23.4754 27.1294 23.4753 27.1296 23.4753 27.1297C23.4752 27.1301 23.4753 27.1296 23.4752 27.13C23.4751 27.1302 23.4751 27.1302 23.4751 27.1304C23.475 27.1304 23.475 27.1305 23.475 27.1306C23.475 27.1306 23.475 27.1307 23.4749 27.1307C23.4748 27.1312 23.4749 27.131 23.4747 27.1314C23.4746 27.1316 23.4745 27.132 23.4745 27.1321C23.4743 27.1328 23.4744 27.1322 23.4742 27.1328C23.4742 27.133 23.4741 27.1334 23.474 27.1335C23.474 27.1336 23.474 27.1337 23.4739 27.1337C23.4739 27.1338 23.4739 27.1338 23.4739 27.1339C23.4739 27.134 23.4738 27.134 23.4738 27.1341C23.4738 27.1341 23.4738 27.1342 23.4738 27.1342C23.4736 27.1349 23.4737 27.1343 23.4735 27.135C23.473 27.1365 23.4738 27.1341 23.4733 27.1357C23.4733 27.1357 23.4733 27.1358 23.4732 27.1358C23.4732 27.1359 23.4732 27.1359 23.4732 27.136C23.4732 27.1361 23.4731 27.1361 23.4731 27.1362C23.4731 27.1362 23.4731 27.1363 23.4731 27.1364C23.4729 27.1368 23.4731 27.1362 23.4729 27.1367C23.4729 27.1368 23.4729 27.1368 23.4729 27.1369C23.4729 27.1369 23.4728 27.137 23.4728 27.1371C23.4724 27.1383 23.473 27.1365 23.4726 27.1378C23.4723 27.1386 23.4728 27.1373 23.4725 27.1381C23.4724 27.1383 23.4724 27.1383 23.4724 27.1385C23.4723 27.1385 23.4723 27.1386 23.4723 27.1386C23.4723 27.1387 23.4723 27.1388 23.4722 27.1388C23.472 27.1396 23.4724 27.1384 23.4721 27.1392C23.4721 27.1392 23.4721 27.1393 23.4721 27.1393C23.472 27.1394 23.472 27.1395 23.472 27.1395C23.472 27.1396 23.472 27.1396 23.4719 27.1397C23.4719 27.1398 23.4719 27.1398 23.4719 27.1399C23.4714 27.1414 23.4722 27.139 23.4717 27.1406C23.4715 27.141 23.4716 27.1408 23.4714 27.1413C23.4713 27.1417 23.4713 27.1415 23.4712 27.142C23.4711 27.1423 23.4711 27.1424 23.471 27.1427C23.4709 27.1427 23.4709 27.1428 23.4709 27.1429C23.4709 27.1429 23.4709 27.143 23.4708 27.143C23.4708 27.1431 23.4708 27.1432 23.4708 27.1432C23.4708 27.1433 23.4707 27.1433 23.4707 27.1434C23.4704 27.1445 23.4708 27.143 23.4705 27.1441C23.4704 27.1442 23.4703 27.1446 23.4702 27.1448C23.4702 27.1449 23.4702 27.1449 23.4702 27.145C23.4702 27.145 23.4702 27.1451 23.4701 27.1451C23.4701 27.1452 23.4701 27.1453 23.4701 27.1453C23.4701 27.1454 23.47 27.1454 23.47 27.1455C23.4698 27.1461 23.47 27.1456 23.4698 27.1462C23.4697 27.1464 23.4696 27.1467 23.4695 27.1469C23.4692 27.1478 23.4696 27.1467 23.4693 27.1476C23.4692 27.1479 23.4692 27.148 23.4691 27.1483C23.4687 27.1496 23.4693 27.1478 23.4688 27.149C23.4687 27.1493 23.4688 27.1491 23.4687 27.1494C23.4686 27.1498 23.4688 27.1492 23.4686 27.1497C23.4686 27.1498 23.4686 27.1498 23.4685 27.1499C23.4685 27.15 23.4685 27.15 23.4685 27.1501C23.4682 27.151 23.4687 27.1495 23.4684 27.1504C23.4684 27.1505 23.4683 27.1505 23.4683 27.1506C23.4683 27.1507 23.4683 27.1507 23.4683 27.1508C23.4682 27.1508 23.4682 27.1509 23.4682 27.1509C23.4682 27.151 23.4682 27.1511 23.4681 27.1511C23.4678 27.1522 23.4683 27.1507 23.4679 27.1518C23.4678 27.1521 23.4678 27.1522 23.4677 27.1525C23.4674 27.1535 23.4679 27.1519 23.4676 27.1529C23.4672 27.1538 23.4677 27.1523 23.4674 27.1532C23.4673 27.1535 23.4673 27.1536 23.4672 27.1539C23.4668 27.1552 23.4674 27.1534 23.467 27.1546C23.4667 27.1556 23.467 27.1544 23.4667 27.1553C23.4665 27.1561 23.4668 27.1553 23.4665 27.156C23.4665 27.1561 23.4665 27.1562 23.4664 27.1562C23.4664 27.1563 23.4664 27.1563 23.4664 27.1564C23.4664 27.1565 23.4663 27.1565 23.4663 27.1566C23.4663 27.1566 23.4663 27.1567 23.4663 27.1567C23.4661 27.1574 23.4662 27.1568 23.466 27.1574C23.4657 27.1584 23.4661 27.1572 23.4658 27.1582C23.4658 27.1582 23.4658 27.1583 23.4657 27.1583C23.4657 27.1584 23.4657 27.1584 23.4657 27.1585C23.4655 27.159 23.4657 27.1584 23.4656 27.1589C23.4651 27.1603 23.4659 27.1578 23.4654 27.1592C23.4654 27.1593 23.4654 27.1593 23.4654 27.1594C23.4654 27.1594 23.4653 27.1595 23.4653 27.1596C23.4649 27.1608 23.4655 27.159 23.4651 27.1603C23.4647 27.1614 23.4653 27.1595 23.465 27.1606C23.465 27.1607 23.4649 27.1607 23.4649 27.1608C23.4649 27.1608 23.4649 27.1609 23.4649 27.161C23.4647 27.1616 23.465 27.1607 23.4647 27.1613C23.4647 27.1614 23.4647 27.1614 23.4647 27.1615C23.4647 27.1616 23.4646 27.1616 23.4646 27.1617C23.4646 27.1617 23.4646 27.1618 23.4646 27.1618C23.4645 27.1619 23.4645 27.162 23.4645 27.162C23.4645 27.1621 23.4645 27.1621 23.4644 27.1622C23.4644 27.1623 23.4644 27.1623 23.4644 27.1624C23.4639 27.1639 23.4647 27.1615 23.4642 27.1631C23.4637 27.1643 23.4643 27.1625 23.4639 27.1638C23.4639 27.1638 23.4639 27.1639 23.4639 27.164C23.4638 27.164 23.4638 27.1641 23.4638 27.1641C23.4632 27.1658 23.4643 27.1628 23.4637 27.1645C23.4636 27.1648 23.4636 27.1649 23.4635 27.1652C23.4634 27.1652 23.4634 27.1653 23.4634 27.1654C23.4634 27.1654 23.4634 27.1655 23.4633 27.1655C23.4633 27.1656 23.4633 27.1657 23.4633 27.1657C23.4633 27.1658 23.4632 27.1658 23.4632 27.1659C23.4626 27.1678 23.4636 27.1647 23.463 27.1666C23.4629 27.1669 23.4629 27.167 23.4627 27.1673C23.4627 27.1674 23.4627 27.1674 23.4627 27.1675C23.4627 27.1675 23.4627 27.1676 23.4626 27.1676C23.4626 27.1677 23.4626 27.1678 23.4626 27.1678C23.4626 27.1679 23.4625 27.1679 23.4625 27.168C23.4623 27.1686 23.4625 27.1681 23.4623 27.1687C23.462 27.1696 23.4624 27.1685 23.462 27.1694C23.462 27.1695 23.462 27.1695 23.462 27.1696C23.462 27.1696 23.4619 27.1697 23.4619 27.1698C23.4619 27.1698 23.4619 27.1699 23.4619 27.1699C23.4619 27.17 23.4618 27.17 23.4618 27.1701C23.4618 27.1702 23.4618 27.1702 23.4618 27.1703C23.4617 27.1703 23.4617 27.1704 23.4617 27.1705C23.4617 27.1705 23.4617 27.1706 23.4616 27.1706C23.4616 27.1707 23.4616 27.1707 23.4616 27.1708C23.4612 27.1721 23.4618 27.1703 23.4613 27.1715C23.4613 27.1716 23.4613 27.1718 23.4612 27.1719C23.4612 27.1719 23.4612 27.172 23.4612 27.172C23.4611 27.1721 23.4611 27.1722 23.4611 27.1722C23.4611 27.1723 23.4611 27.1723 23.4611 27.1724C23.461 27.1724 23.461 27.1725 23.461 27.1726L23.4609 27.1729C23.4609 27.173 23.4608 27.173 23.4608 27.1731C23.4608 27.1732 23.4608 27.1732 23.4608 27.1733C23.4607 27.1733 23.4607 27.1734 23.4607 27.1734C23.4607 27.1735 23.4607 27.1736 23.4606 27.1736C23.4601 27.1752 23.4609 27.1728 23.4604 27.1743C23.4603 27.1746 23.4603 27.1747 23.4602 27.175C23.4602 27.1751 23.4601 27.1751 23.4601 27.1752C23.4601 27.1753 23.4601 27.1753 23.4601 27.1754C23.46 27.1754 23.46 27.1755 23.46 27.1756C23.46 27.1756 23.46 27.1757 23.4599 27.1757C23.4597 27.1765 23.46 27.1757 23.4597 27.1764C23.4596 27.1767 23.4596 27.1768 23.4595 27.1771C23.4588 27.179 23.4599 27.176 23.4592 27.1778C23.459 27.1786 23.4594 27.1774 23.4591 27.1782C23.459 27.1785 23.4591 27.1782 23.459 27.1785C23.459 27.1786 23.459 27.1787 23.4589 27.1787C23.4589 27.1788 23.4589 27.1788 23.4589 27.1789C23.4589 27.179 23.4588 27.179 23.4588 27.1791C23.4588 27.1791 23.4588 27.1792 23.4588 27.1792C23.4586 27.1799 23.4587 27.1793 23.4585 27.1799C23.4582 27.1809 23.4586 27.1797 23.4583 27.1807C23.4583 27.1807 23.4583 27.1808 23.4582 27.1808C23.4582 27.1809 23.4582 27.1809 23.4582 27.181C23.4582 27.1811 23.4581 27.1811 23.4581 27.1812C23.4581 27.1812 23.4581 27.1813 23.4581 27.1814C23.4578 27.1821 23.4582 27.1809 23.4579 27.1817C23.4579 27.1818 23.4579 27.1818 23.4579 27.1819C23.4579 27.1819 23.4578 27.182 23.4578 27.1821C23.4574 27.1833 23.458 27.1815 23.4576 27.1828C23.4574 27.1834 23.4576 27.1828 23.4574 27.1835C23.4573 27.1835 23.4573 27.1836 23.4573 27.1836C23.4573 27.1837 23.4573 27.1838 23.4572 27.1838C23.457 27.1844 23.4573 27.1835 23.4571 27.1842C23.4571 27.1842 23.4571 27.1843 23.4571 27.1843C23.457 27.1844 23.457 27.1845 23.457 27.1845C23.457 27.1846 23.457 27.1846 23.4569 27.1847C23.4569 27.1848 23.4569 27.1848 23.4569 27.1849C23.4564 27.1864 23.4572 27.184 23.4567 27.1856C23.4566 27.1856 23.4566 27.1857 23.4566 27.1857C23.4566 27.1858 23.4566 27.1859 23.4565 27.1859C23.4565 27.186 23.4565 27.186 23.4565 27.1861C23.4565 27.1862 23.4564 27.1862 23.4564 27.1863C23.4562 27.1869 23.4564 27.1864 23.4562 27.187C23.4562 27.187 23.4561 27.1871 23.4561 27.1872C23.4561 27.1872 23.4561 27.1873 23.4561 27.1873C23.4561 27.1874 23.456 27.1874 23.456 27.1875C23.456 27.1876 23.456 27.1876 23.456 27.1877C23.4559 27.1877 23.4559 27.1878 23.4559 27.1879C23.4559 27.1879 23.4559 27.188 23.4558 27.188C23.4558 27.1881 23.4558 27.1882 23.4558 27.1882C23.4558 27.1883 23.4557 27.1883 23.4557 27.1884C23.4551 27.1903 23.4561 27.1872 23.4555 27.1891C23.4554 27.1894 23.4554 27.1895 23.4552 27.1898C23.4552 27.1899 23.4551 27.1903 23.455 27.1905C23.455 27.1907 23.4548 27.191 23.4548 27.1912C23.4545 27.1921 23.4549 27.191 23.4545 27.1919C23.4545 27.192 23.4545 27.192 23.4545 27.1921C23.4545 27.1921 23.4544 27.1922 23.4544 27.1923C23.4544 27.1923 23.4544 27.1924 23.4544 27.1924C23.4544 27.1925 23.4543 27.1925 23.4543 27.1926C23.4543 27.1928 23.4542 27.1928 23.4542 27.193C23.4542 27.193 23.4542 27.1931 23.4541 27.1931C23.4541 27.1932 23.4541 27.1932 23.4541 27.1933C23.454 27.1936 23.4539 27.1937 23.4538 27.194C23.4536 27.1946 23.4539 27.1937 23.4537 27.1944C23.4536 27.1946 23.4537 27.1945 23.4536 27.1947C23.453 27.1964 23.4541 27.1933 23.4535 27.1951C23.4532 27.196 23.4537 27.1945 23.4534 27.1954C23.4534 27.1955 23.4533 27.1955 23.4533 27.1956C23.4533 27.1957 23.4533 27.1957 23.4533 27.1958C23.4532 27.1958 23.4532 27.1959 23.4532 27.1959C23.4532 27.196 23.4532 27.1961 23.4531 27.1961C23.4526 27.1977 23.4534 27.1953 23.4529 27.1968C23.4527 27.1973 23.4528 27.1971 23.4527 27.1975C23.4525 27.198 23.4526 27.1978 23.4524 27.1982C23.4523 27.1985 23.4523 27.1986 23.4522 27.1989C23.4521 27.1992 23.4521 27.1993 23.452 27.1996C23.4516 27.2007 23.4521 27.1992 23.4517 27.2003C23.4517 27.2005 23.4516 27.2009 23.4515 27.201C23.4515 27.2011 23.4515 27.2012 23.4514 27.2012C23.4514 27.2013 23.4514 27.2013 23.4514 27.2014C23.4514 27.2015 23.4513 27.2015 23.4513 27.2016C23.4513 27.2016 23.4513 27.2017 23.4513 27.2017C23.4511 27.2024 23.4512 27.2018 23.451 27.2024C23.4508 27.2031 23.451 27.2025 23.4508 27.2031C23.4508 27.2032 23.4508 27.2033 23.4507 27.2033C23.4507 27.2034 23.4507 27.2034 23.4507 27.2035C23.4507 27.2036 23.4506 27.2038 23.4506 27.2039C23.4504 27.2043 23.4506 27.2037 23.4504 27.2042C23.4504 27.2043 23.4504 27.2043 23.4504 27.2044C23.4504 27.2044 23.4503 27.2045 23.4503 27.2046C23.4499 27.2058 23.4505 27.204 23.4501 27.2053C23.45 27.2057 23.4501 27.2052 23.45 27.2056C23.45 27.2057 23.4499 27.2057 23.4499 27.2058C23.4499 27.2058 23.4499 27.2059 23.4499 27.206C23.4498 27.206 23.4498 27.2061 23.4498 27.2061C23.4498 27.2062 23.4498 27.2063 23.4497 27.2063C23.4495 27.2071 23.4499 27.2059 23.4496 27.2067C23.4496 27.2067 23.4496 27.2068 23.4496 27.2068C23.4495 27.2069 23.4495 27.207 23.4495 27.207C23.4495 27.2071 23.4495 27.2071 23.4494 27.2072C23.4494 27.2073 23.4494 27.2073 23.4494 27.2074C23.4489 27.2088 23.4496 27.2067 23.4492 27.2081C23.449 27.2085 23.4491 27.2083 23.4489 27.2088C23.4486 27.2097 23.449 27.2085 23.4487 27.2095C23.4485 27.2099 23.4486 27.2097 23.4485 27.2102C23.4484 27.2102 23.4484 27.2103 23.4484 27.2104C23.4484 27.2104 23.4484 27.2105 23.4483 27.2105C23.4483 27.2106 23.4483 27.2107 23.4483 27.2107C23.4483 27.2108 23.4482 27.2108 23.4482 27.2109C23.4477 27.2124 23.4485 27.21 23.448 27.2116C23.4478 27.2122 23.448 27.2117 23.4478 27.2123C23.4477 27.2123 23.4477 27.2124 23.4477 27.2125C23.4477 27.2125 23.4477 27.2126 23.4476 27.2126C23.4476 27.2127 23.4476 27.2128 23.4476 27.2128C23.4476 27.2129 23.4475 27.2129 23.4475 27.213C23.4474 27.2135 23.4474 27.2132 23.4473 27.2137C23.4471 27.2143 23.4473 27.2138 23.447 27.2144C23.4469 27.2147 23.4469 27.2148 23.4468 27.2151C23.4467 27.2156 23.4467 27.2153 23.4466 27.2158L32.9334 30.3781C32.9338 30.377 32.9333 30.3785 32.9336 30.3774C32.9337 30.3773 32.9337 30.3771 32.9338 30.377C32.9338 30.377 32.9338 30.3769 32.9338 30.3769C32.9338 30.3768 32.9339 30.3767 32.9339 30.3767C32.9339 30.3766 32.9339 30.3766 32.9339 30.3765C32.934 30.3764 32.934 30.3764 32.934 30.3763C32.934 30.3762 32.9341 30.3761 32.9341 30.376C32.9341 30.3759 32.9342 30.3759 32.9342 30.3758C32.9342 30.3757 32.9342 30.3757 32.9342 30.3756C32.9342 30.3756 32.9343 30.3755 32.9343 30.3754C32.9343 30.3754 32.9343 30.3753 32.9343 30.3753C32.9348 30.3739 32.9341 30.376 32.9346 30.3746C32.9346 30.3745 32.9346 30.3745 32.9346 30.3744C32.9347 30.3743 32.9347 30.3743 32.9347 30.3742C32.935 30.3734 32.9345 30.3747 32.9348 30.3739C32.935 30.3734 32.9349 30.3736 32.9351 30.3732C32.9352 30.3727 32.9351 30.3729 32.9353 30.3725C32.9353 30.3723 32.9355 30.3719 32.9355 30.3718C32.9359 30.3707 32.9354 30.3721 32.9358 30.3711C32.9358 30.3709 32.9359 30.3705 32.936 30.3703C32.936 30.3703 32.936 30.3702 32.936 30.3702C32.9361 30.3701 32.9361 30.3701 32.9361 30.37C32.9361 30.3699 32.9361 30.3699 32.9362 30.3698C32.9362 30.3698 32.9362 30.3697 32.9362 30.3696C32.9364 30.369 32.9362 30.3696 32.9365 30.3689C32.9368 30.3678 32.9363 30.3693 32.9367 30.3682C32.9367 30.3682 32.9367 30.3681 32.9368 30.3681C32.9368 30.368 32.9368 30.3679 32.9368 30.3679C32.9368 30.3678 32.9369 30.3676 32.9369 30.3675C32.9371 30.3671 32.9369 30.3677 32.937 30.3672C32.9371 30.3671 32.9371 30.3671 32.9371 30.367C32.9371 30.367 32.9371 30.3669 32.9372 30.3668C32.9376 30.3656 32.937 30.3674 32.9374 30.3661C32.9375 30.3657 32.9374 30.3662 32.9375 30.3658C32.9375 30.3657 32.9376 30.3657 32.9376 30.3656C32.9376 30.3655 32.9376 30.3655 32.9376 30.3654C32.9376 30.3654 32.9377 30.3653 32.9377 30.3653C32.9377 30.3652 32.9377 30.3651 32.9377 30.3651C32.938 30.3643 32.9376 30.3655 32.9379 30.3647C32.9379 30.3647 32.9379 30.3646 32.9379 30.3645C32.9379 30.3645 32.938 30.3644 32.938 30.3644C32.938 30.3643 32.938 30.3643 32.938 30.3642C32.9381 30.3641 32.9381 30.3641 32.9381 30.364C32.9386 30.3625 32.9378 30.3649 32.9383 30.3633C32.9385 30.3629 32.9384 30.3631 32.9386 30.3626C32.9387 30.3621 32.9386 30.3624 32.9388 30.3619C32.9389 30.3616 32.9389 30.3615 32.939 30.3612C32.9391 30.3612 32.9391 30.3611 32.9391 30.361C32.9391 30.361 32.9391 30.3609 32.9392 30.3609C32.9392 30.3608 32.9392 30.3607 32.9392 30.3607C32.9392 30.3606 32.9393 30.3606 32.9393 30.3605C32.9396 30.3594 32.9391 30.3609 32.9395 30.3598C32.9396 30.3596 32.9397 30.3593 32.9397 30.3591C32.9398 30.359 32.9398 30.359 32.9398 30.3589C32.9398 30.3589 32.9398 30.3588 32.9399 30.3587C32.9399 30.3587 32.9399 30.3586 32.9399 30.3586C32.9399 30.3585 32.94 30.3585 32.94 30.3584C32.9402 30.3578 32.94 30.3583 32.9402 30.3577C32.9406 30.3566 32.9401 30.3581 32.9404 30.357C32.9405 30.3569 32.9405 30.3569 32.9405 30.3568C32.9405 30.3568 32.9405 30.3567 32.9406 30.3566C32.9406 30.3566 32.9406 30.3565 32.9406 30.3565C32.9406 30.3564 32.9407 30.3563 32.9407 30.3563C32.9407 30.3561 32.9407 30.3561 32.9408 30.3559C32.9408 30.3559 32.9408 30.3558 32.9409 30.3558C32.9409 30.3557 32.9409 30.3556 32.9409 30.3556C32.9413 30.3543 32.9407 30.3561 32.9411 30.3549C32.9412 30.3548 32.9412 30.3548 32.9412 30.3547C32.9412 30.3546 32.9412 30.3546 32.9413 30.3545C32.9413 30.3543 32.9413 30.3544 32.9414 30.3542C32.9414 30.3541 32.9414 30.3541 32.9414 30.354C32.9415 30.3539 32.9415 30.3539 32.9415 30.3538C32.9418 30.3529 32.9413 30.3544 32.9416 30.3535C32.9416 30.3534 32.9417 30.3534 32.9417 30.3533C32.9417 30.3532 32.9417 30.3532 32.9417 30.3531C32.9417 30.3531 32.9418 30.353 32.9418 30.3529C32.9418 30.3529 32.9418 30.3528 32.9418 30.3528C32.9424 30.3512 32.9416 30.3536 32.9421 30.3521C32.9422 30.3518 32.9422 30.3517 32.9423 30.3514C32.9425 30.3507 32.9423 30.3513 32.9426 30.3507C32.9427 30.3504 32.9427 30.3503 32.9428 30.35C32.9429 30.3496 32.9429 30.3496 32.943 30.3493C32.9433 30.3483 32.9429 30.3495 32.9433 30.3486C32.9434 30.3482 32.9434 30.3482 32.9435 30.3479C32.9435 30.3478 32.9435 30.3477 32.9435 30.3477C32.9436 30.3476 32.9436 30.3476 32.9436 30.3475C32.9436 30.3474 32.9436 30.3474 32.9437 30.3473C32.9437 30.3473 32.9437 30.3472 32.9437 30.3471C32.9439 30.3465 32.9437 30.3471 32.944 30.3464C32.9443 30.3455 32.9439 30.3467 32.9442 30.3457C32.9442 30.3457 32.9442 30.3456 32.9443 30.3456C32.9443 30.3455 32.9443 30.3454 32.9443 30.3454C32.9445 30.3449 32.9443 30.3455 32.9444 30.345C32.9449 30.3436 32.9441 30.3461 32.9445 30.3447C32.9446 30.3446 32.9446 30.3446 32.9446 30.3445C32.9446 30.3445 32.9446 30.3444 32.9447 30.3443C32.9451 30.3431 32.9445 30.3449 32.9449 30.3436C32.9453 30.3425 32.9446 30.3444 32.945 30.3433C32.945 30.3432 32.9451 30.3432 32.9451 30.3431C32.9451 30.343 32.9451 30.343 32.9451 30.3429C32.9453 30.3423 32.945 30.3432 32.9452 30.3426C32.9453 30.3425 32.9453 30.3425 32.9453 30.3424C32.9453 30.3423 32.9453 30.3423 32.9454 30.3422C32.9454 30.3422 32.9454 30.3421 32.9454 30.3421C32.9454 30.342 32.9455 30.3419 32.9455 30.3419C32.9455 30.3418 32.9455 30.3418 32.9455 30.3417C32.9456 30.3416 32.9456 30.3416 32.9456 30.3415C32.9461 30.34 32.9453 30.3424 32.9458 30.3408C32.9459 30.3405 32.946 30.3404 32.9461 30.3401C32.9463 30.3395 32.9461 30.34 32.9463 30.3394C32.9464 30.3391 32.9464 30.339 32.9465 30.3387C32.9466 30.3387 32.9466 30.3386 32.9466 30.3385C32.9466 30.3385 32.9466 30.3384 32.9467 30.3384C32.9467 30.3383 32.9467 30.3382 32.9467 30.3382C32.9467 30.3381 32.9468 30.3381 32.9468 30.338C32.9471 30.3371 32.9467 30.3382 32.947 30.3373C32.9471 30.337 32.9471 30.3369 32.9472 30.3366C32.9473 30.3365 32.9473 30.3365 32.9473 30.3364C32.9473 30.3364 32.9473 30.3363 32.9474 30.3363C32.9474 30.3362 32.9474 30.3361 32.9474 30.3361C32.9474 30.336 32.9475 30.336 32.9475 30.3359C32.9477 30.3353 32.9475 30.3358 32.9477 30.3352C32.948 30.3343 32.9476 30.3354 32.9479 30.3345C32.948 30.3344 32.948 30.3344 32.948 30.3343C32.948 30.3343 32.948 30.3342 32.9481 30.3341C32.9481 30.3341 32.9481 30.334 32.9481 30.334C32.9481 30.3339 32.9482 30.3338 32.9482 30.3338C32.9482 30.3337 32.9482 30.3337 32.9482 30.3336C32.9483 30.3336 32.9483 30.3335 32.9483 30.3334C32.9483 30.3334 32.9483 30.3333 32.9484 30.3333C32.9484 30.3332 32.9484 30.3331 32.9484 30.3331C32.9488 30.3318 32.9482 30.3336 32.9486 30.3324C32.9487 30.3321 32.9487 30.3323 32.9488 30.332C32.9488 30.332 32.9488 30.3319 32.9488 30.3319C32.9488 30.3318 32.9489 30.3317 32.9489 30.3317C32.9489 30.3316 32.9489 30.3316 32.9489 30.3315C32.949 30.3314 32.949 30.3314 32.949 30.3313L32.9491 30.331C32.9491 30.3309 32.9492 30.3309 32.9492 30.3308C32.9492 30.3307 32.9492 30.3307 32.9492 30.3306C32.9492 30.3306 32.9493 30.3305 32.9493 30.3305C32.9493 30.3304 32.9493 30.3303 32.9493 30.3303C32.9499 30.3287 32.9491 30.3311 32.9496 30.3296C32.9497 30.3293 32.9497 30.3292 32.9498 30.3289C32.95 30.3282 32.9498 30.3288 32.9501 30.3282C32.9502 30.3279 32.9502 30.3278 32.9503 30.3275C32.9504 30.3271 32.9504 30.3271 32.9505 30.3268C32.9508 30.3258 32.9504 30.327 32.9508 30.3261C32.9509 30.3257 32.9509 30.3257 32.951 30.3254C32.951 30.3253 32.951 30.3252 32.951 30.3252C32.9511 30.3251 32.9511 30.3251 32.9511 30.325C32.9511 30.3249 32.9511 30.3249 32.9512 30.3248C32.9512 30.3248 32.9512 30.3247 32.9512 30.3246C32.9514 30.324 32.9512 30.3246 32.9515 30.3239C32.9518 30.323 32.9514 30.3242 32.9517 30.3232C32.9517 30.3232 32.9517 30.3231 32.9518 30.3231C32.9518 30.323 32.9518 30.323 32.9518 30.3229C32.9518 30.3228 32.9518 30.3228 32.9519 30.3227C32.9519 30.3227 32.9519 30.3226 32.9519 30.3225C32.9522 30.3218 32.9518 30.323 32.952 30.3222C32.9521 30.3221 32.9521 30.3221 32.9521 30.322C32.9521 30.322 32.9521 30.3219 32.9522 30.3218C32.9526 30.3206 32.952 30.3224 32.9524 30.3211C32.9526 30.3207 32.9524 30.3213 32.9525 30.3208C32.9525 30.3207 32.9526 30.3207 32.9526 30.3206C32.9526 30.3205 32.9526 30.3205 32.9526 30.3204C32.9526 30.3204 32.9527 30.3203 32.9527 30.3203C32.9527 30.3202 32.9527 30.3201 32.9527 30.3201C32.953 30.3195 32.9527 30.3204 32.9529 30.3197C32.9529 30.3197 32.9529 30.3196 32.9529 30.3196C32.9529 30.3195 32.953 30.3194 32.953 30.3194C32.953 30.3193 32.953 30.3193 32.953 30.3192C32.9531 30.3191 32.9531 30.3191 32.9531 30.319C32.9536 30.3175 32.9528 30.3199 32.9533 30.3183C32.9534 30.318 32.9535 30.3179 32.9536 30.3176C32.9538 30.317 32.9536 30.3175 32.9538 30.3169C32.9539 30.3166 32.9539 30.3165 32.954 30.3162C32.9541 30.3162 32.9541 30.3161 32.9541 30.316C32.9541 30.316 32.9541 30.3159 32.9542 30.3159C32.9542 30.3158 32.9542 30.3157 32.9542 30.3157C32.9542 30.3156 32.9543 30.3156 32.9543 30.3155C32.9546 30.3146 32.9542 30.3157 32.9545 30.3148C32.9546 30.3145 32.9546 30.3144 32.9547 30.3141C32.9549 30.3135 32.9546 30.3144 32.9549 30.3138C32.9549 30.3137 32.9549 30.3136 32.9549 30.3136C32.9549 30.3135 32.955 30.3135 32.955 30.3134C32.9552 30.3128 32.955 30.3133 32.9552 30.3127C32.9555 30.3118 32.9551 30.3129 32.9554 30.312C32.9555 30.3118 32.9555 30.3119 32.9556 30.3116C32.9556 30.3116 32.9556 30.3115 32.9556 30.3115C32.9556 30.3114 32.9557 30.3113 32.9557 30.3113C32.9557 30.3111 32.9557 30.3111 32.9558 30.3109C32.9558 30.3109 32.9558 30.3108 32.9559 30.3108C32.9559 30.3107 32.9559 30.3106 32.9559 30.3106C32.9563 30.3093 32.9557 30.3111 32.9561 30.3099C32.9564 30.3093 32.9561 30.3102 32.9563 30.3095C32.9563 30.3093 32.9563 30.3094 32.9564 30.3092C32.9568 30.3079 32.9561 30.3101 32.9565 30.3088C32.9568 30.3079 32.9563 30.3094 32.9566 30.3085C32.9566 30.3084 32.9567 30.3084 32.9567 30.3083C32.9567 30.3082 32.9567 30.3082 32.9567 30.3081C32.9567 30.3081 32.9568 30.308 32.9568 30.308C32.9568 30.3079 32.9568 30.3078 32.9568 30.3078C32.9574 30.3062 32.9566 30.3086 32.9571 30.3071C32.9572 30.3066 32.9572 30.3068 32.9573 30.3064C32.9575 30.3059 32.9574 30.3061 32.9576 30.3057C32.9577 30.3054 32.9577 30.3053 32.9578 30.305C32.9579 30.3046 32.9579 30.3046 32.958 30.3043C32.9584 30.3032 32.9579 30.3046 32.9583 30.3036C32.9583 30.3034 32.9584 30.303 32.9585 30.3029C32.9585 30.3028 32.9585 30.3027 32.9585 30.3027C32.9586 30.3026 32.9586 30.3026 32.9586 30.3025C32.9586 30.3024 32.9586 30.3024 32.9587 30.3023C32.9587 30.3023 32.9587 30.3022 32.9587 30.3022C32.9589 30.3015 32.9587 30.3021 32.959 30.3014C32.9593 30.3004 32.9588 30.3018 32.9592 30.3007C32.9592 30.3007 32.9592 30.3006 32.9593 30.3006C32.9593 30.3005 32.9593 30.3005 32.9593 30.3004C32.9595 30.2998 32.9592 30.3006 32.9594 30.3C32.9594 30.3 32.9595 30.2999 32.9595 30.2999C32.9595 30.2998 32.9595 30.2997 32.9595 30.2997C32.9596 30.2996 32.9596 30.2996 32.9596 30.2995C32.9596 30.2995 32.9596 30.2994 32.9597 30.2993C32.9601 30.2981 32.9595 30.2999 32.9599 30.2986C32.9599 30.2986 32.9599 30.2985 32.96 30.2985C32.96 30.2984 32.96 30.2983 32.96 30.2983C32.96 30.2982 32.9601 30.2982 32.9601 30.2981C32.9601 30.298 32.9601 30.298 32.9601 30.2979C32.9601 30.2979 32.9602 30.2978 32.9602 30.2978C32.9602 30.2977 32.9602 30.2976 32.9602 30.2976C32.9603 30.2975 32.9603 30.2975 32.9603 30.2974C32.9603 30.2973 32.9603 30.2973 32.9604 30.2972C32.9604 30.2972 32.9604 30.2971 32.9604 30.2971C32.9604 30.297 32.9605 30.2969 32.9605 30.2969C32.9605 30.2968 32.9605 30.2968 32.9605 30.2967C32.9606 30.2966 32.9606 30.2966 32.9606 30.2965C32.9611 30.2951 32.9604 30.2972 32.9608 30.2958C32.961 30.2954 32.9609 30.2956 32.9611 30.2951C32.9612 30.2947 32.9611 30.2949 32.9613 30.2944C32.9615 30.2939 32.9614 30.2942 32.9615 30.2937C32.9616 30.2937 32.9616 30.2936 32.9616 30.2935C32.9616 30.2935 32.9616 30.2934 32.9617 30.2934C32.9617 30.2933 32.9617 30.2932 32.9617 30.2932C32.9617 30.2931 32.9618 30.2931 32.9618 30.293C32.9621 30.2919 32.9616 30.2934 32.962 30.2923C32.9624 30.2912 32.9619 30.2927 32.9622 30.2916C32.9623 30.2915 32.9623 30.2915 32.9623 30.2914C32.9623 30.2914 32.9623 30.2913 32.9624 30.2913C32.9624 30.2912 32.9624 30.2911 32.9624 30.2911C32.9624 30.291 32.9625 30.291 32.9625 30.2909C32.9626 30.2904 32.9626 30.2907 32.9627 30.2902C32.9631 30.2891 32.9626 30.2906 32.9629 30.2895C32.963 30.2892 32.963 30.2895 32.9631 30.2891C32.9631 30.2891 32.9631 30.289 32.9631 30.289C32.9631 30.2889 32.9632 30.2888 32.9632 30.2888C32.9634 30.2882 32.9631 30.2891 32.9633 30.2884C32.9633 30.2884 32.9633 30.2883 32.9634 30.2883C32.9634 30.2882 32.9634 30.2881 32.9634 30.2881L23.4766 27.1258ZM30.047 24.1546L29.847 24.0746L26.133 33.3593L26.333 33.4393L30.047 24.1546ZM22.9981 28.4321L22.6181 35.0921L32.6019 35.6618L32.9819 29.0018L22.9981 28.4321ZM25.5148 39.9168L25.7748 40.0368L29.9652 30.9571L29.7051 30.8371L25.5148 39.9168ZM25.6339 39.9691C25.7458 40.025 25.839 40.067 25.893 40.0909C25.9202 40.1029 25.943 40.1128 25.954 40.1175C25.957 40.1188 25.9597 40.1199 25.9616 40.1208C25.9637 40.1217 25.9648 40.1222 25.9659 40.1227C25.9681 40.1236 25.9672 40.1232 25.965 40.1223C25.9615 40.1207 25.9036 40.0957 25.827 40.0587C25.7476 40.0204 25.62 39.9559 25.4675 39.8644L30.6125 31.2895C30.435 31.183 30.2812 31.1047 30.1746 31.0533C30.0708 31.0031 29.9848 30.9657 29.9525 30.9516C29.9431 30.9476 29.935 30.944 29.9299 30.9418C29.9212 30.9381 29.9245 30.9395 29.9199 30.9376C29.9163 30.936 29.9244 30.9395 29.9367 30.9449C29.961 30.9557 30.0242 30.9839 30.1061 31.0248L25.6339 39.9691ZM23.0758 34.9794L22.8158 37.1394L32.7442 38.3345L33.0042 36.1745L23.0758 34.9794ZM22.8381 36.9767C22.4005 39.8214 24.281 41.842 26.0436 42.5298C27.8091 43.2188 30.6378 43.0108 32.2283 40.5113L23.7917 35.1426C25.3122 32.7531 28.0159 32.5651 29.6789 33.214C31.339 33.8619 33.1395 35.7825 32.7219 38.4972L22.8381 36.9767ZM32.0995 40.7038L33.3095 38.9838L25.1305 33.2301L23.9205 34.9501L32.0995 40.7038ZM27.363 40.7493C27.3221 40.7329 27.29 40.7193 27.2714 40.7113C27.2562 40.7047 27.2447 40.6995 27.2594 40.706C27.2672 40.7095 27.3012 40.7247 27.3396 40.7413C27.3813 40.7593 27.4371 40.7829 27.503 40.8093L31.2169 31.5246C31.2579 31.5409 31.2899 31.5546 31.3085 31.5626C31.3238 31.5692 31.3353 31.5744 31.3206 31.5678C31.3128 31.5644 31.2788 31.5492 31.2404 31.5326C31.1987 31.5146 31.1429 31.4909 31.0769 31.4646L27.363 40.7493ZM27.3903 40.7626L27.6704 40.8826L31.6097 31.6912L31.3296 31.5712L27.3903 40.7626ZM33.4248 39.5543L37.8448 34.4343L30.2752 27.8996L25.8552 33.0196L33.4248 39.5543ZM35.983 26.5515L35.863 26.5015L32.017 35.7323L32.137 35.7823L35.983 26.5515ZM38.6834 32.6981C38.5796 33.0095 38.4629 33.2544 38.3778 33.4168C38.3361 33.4964 38.3004 33.5591 38.2785 33.5967C38.2675 33.6158 38.2585 33.6308 38.2535 33.6394C38.2489 33.647 38.2451 33.6533 38.2468 33.6505C38.247 33.6502 38.2527 33.6408 38.2591 33.63C38.266 33.6183 38.2768 33.6001 38.2897 33.5779C38.3152 33.534 38.3546 33.4648 38.3997 33.3787C38.4917 33.2032 38.6146 32.9445 38.7234 32.6181L29.2366 29.4558C29.3404 29.1444 29.4571 28.8995 29.5422 28.7371C29.5839 28.6575 29.6196 28.5948 29.6415 28.5572C29.6525 28.5381 29.6615 28.5231 29.6665 28.5145C29.6711 28.5069 29.6749 28.5005 29.6732 28.5034C29.673 28.5037 29.6673 28.5131 29.6609 28.5239C29.654 28.5356 29.6432 28.5538 29.6303 28.576C29.6048 28.6199 29.5654 28.6891 29.5203 28.7752C29.4283 28.9507 29.3054 29.2093 29.1966 29.5358L38.6834 32.6981ZM38.6145 32.9135L43.0645 21.9235L33.7955 18.1704L29.3455 29.1604L38.6145 32.9135ZM38.43 25.0469H50.44V15.0469H38.43V25.0469ZM45.44 20.0469V44.5169H55.44V20.0469H45.44ZM50.44 13.3869H39.1V23.3869H50.44V13.3869ZM43.7358 20.2602L46.1158 14.3702L36.8442 10.6237L34.4642 16.5137L43.7358 20.2602ZM41.48 17.4969H48.82V7.49694H41.48V17.4969ZM48.82 17.4969C46.9485 17.4969 45.44 15.9883 45.44 14.1169H55.44C55.44 10.4656 52.4715 7.49694 48.82 7.49694V17.4969ZM45.44 14.1169V18.3869H55.44V14.1169H45.44Z" fill="#AD7979" mask="url(#path-5-inside-2_1054_1553)"/>
</svg>
