<svg width="55" height="43" viewBox="0 0 55 43" fill="none" xmlns="http://www.w3.org/2000/svg">
<path d="M1.55913 42.7969H52.6284C53.4382 42.7969 54.0938 42.1937 54.0938 41.4485V9.77407C54.0938 9.02893 53.4382 8.42571 52.6284 8.42571H28.8997L24.0023 1.41191C23.7324 1.0216 23.2697 0.796875 22.7684 0.796875H1.55913C0.749327 0.796875 0.09375 1.40008 0.09375 2.14523V41.4485C0.09375 42.1937 0.749327 42.7969 1.55913 42.7969ZM3.01165 3.48175H21.9714L25.7248 8.86333C18.1537 8.86333 10.5827 8.86333 3.01165 8.86333V3.48175ZM3.01165 15.5341V14.3041V11.1579C11.3668 11.1579 19.7348 11.1579 28.0899 11.1579C28.2185 11.1579 28.3342 11.1342 28.4498 11.1106H51.163V14.3041V15.5341V40.1002H3.02448V15.5341H3.01165Z" fill="#AD7979"/>
</svg>
