<svg width="46" height="42" viewBox="0 0 46 42" fill="none" xmlns="http://www.w3.org/2000/svg">
<mask id="path-1-inside-1_1054_1303" fill="white">
<path d="M13.821 13.136H31.6509C31.9909 13.136 32.2609 12.866 32.2609 12.526C32.2609 12.186 31.9909 11.916 31.6509 11.916H13.821C13.481 11.916 13.2109 12.186 13.2109 12.526C13.2109 12.866 13.481 13.136 13.821 13.136Z"/>
</mask>
<path d="M13.821 13.136H31.6509C31.9909 13.136 32.2609 12.866 32.2609 12.526C32.2609 12.186 31.9909 11.916 31.6509 11.916H13.821C13.481 11.916 13.2109 12.186 13.2109 12.526C13.2109 12.866 13.481 13.136 13.821 13.136Z" fill="#AD7979"/>
<path d="M13.821 23.136H31.6509V3.13605H13.821V23.136ZM31.6509 23.136C37.5151 23.136 42.2609 18.3875 42.2609 12.526H22.2609C22.2609 7.34446 26.4668 3.13605 31.6509 3.13605V23.136ZM42.2609 12.526C42.2609 6.66315 37.5138 1.91602 31.6509 1.91602V21.916C26.4681 21.916 22.2609 17.7088 22.2609 12.526H42.2609ZM31.6509 1.91602H13.821V21.916H31.6509V1.91602ZM13.821 1.91602C7.95876 1.91602 3.21094 6.6625 3.21094 12.526H23.2109C23.2109 17.7095 19.0031 21.916 13.821 21.916V1.91602ZM3.21094 12.526C3.21094 18.3882 7.95745 23.136 13.821 23.136V3.13605C19.0045 3.13605 23.2109 7.34381 23.2109 12.526H3.21094Z" fill="#AD7979" mask="url(#path-1-inside-1_1054_1303)"/>
<mask id="path-3-inside-2_1054_1303" fill="white">
<path d="M32.2609 17.8864C32.2609 17.5464 31.9909 17.2764 31.6509 17.2764H13.821C13.481 17.2764 13.2109 17.5464 13.2109 17.8864C13.2109 18.2264 13.481 18.4964 13.821 18.4964H31.6509C31.9909 18.4864 32.2609 18.2164 32.2609 17.8864Z"/>
</mask>
<path d="M32.2609 17.8864C32.2609 17.5464 31.9909 17.2764 31.6509 17.2764H13.821C13.481 17.2764 13.2109 17.5464 13.2109 17.8864C13.2109 18.2264 13.481 18.4964 13.821 18.4964H31.6509C31.9909 18.4864 32.2609 18.2164 32.2609 17.8864Z" fill="#AD7979"/>
<path d="M31.6509 18.4964V28.4964H31.798L31.9449 28.4921L31.6509 18.4964ZM42.2609 17.8864C42.2609 12.0249 37.5151 7.27637 31.6509 7.27637V27.2764C26.4668 27.2764 22.2609 23.068 22.2609 17.8864H42.2609ZM31.6509 7.27637H13.821V27.2764H31.6509V7.27637ZM13.821 7.27637C7.95745 7.27637 3.21094 12.0242 3.21094 17.8864H23.2109C23.2109 23.0686 19.0045 27.2764 13.821 27.2764V7.27637ZM3.21094 17.8864C3.21094 23.7499 7.95876 28.4964 13.821 28.4964V8.4964C19.0031 8.4964 23.2109 12.7029 23.2109 17.8864H3.21094ZM13.821 28.4964H31.6509V8.4964H13.821V28.4964ZM31.9449 28.4921C37.4158 28.3312 42.2609 23.8959 42.2609 17.8864H22.2609C22.2609 12.5369 26.5661 8.64163 31.3569 8.50072L31.9449 28.4921Z" fill="#AD7979" mask="url(#path-3-inside-2_1054_1303)"/>
<mask id="path-5-inside-3_1054_1303" fill="white">
<path d="M45.5738 16.3765L38.0437 10.8765V9.54652C38.0437 6.89652 35.8037 4.73653 33.0437 4.73653H29.6437L23.5638 0.296523C23.2438 0.0665234 22.8037 0.0665234 22.4837 0.296523L16.4037 4.73653H13.0038C10.2438 4.73653 8.00375 6.89652 8.00375 9.54652V10.8765L0.473755 16.3765C0.243755 16.5465 0.10375 16.8165 0.09375 17.1065C0.09375 17.1565 0.103739 17.2065 0.113739 17.2565C0.103739 17.2965 0.09375 17.3365 0.09375 17.3765V40.1265C0.09375 40.2565 0.133746 40.3865 0.183746 40.5065C0.0937463 40.7165 0.0637378 40.9465 0.143738 41.1765C0.273738 41.5465 0.613754 41.7965 1.00375 41.7965H45.0137C45.4037 41.7965 45.7538 41.5465 45.8838 41.1765C45.9638 40.9565 45.9338 40.7165 45.8438 40.5065C45.8937 40.3865 45.9337 40.2665 45.9337 40.1265V17.3765C45.9337 17.3365 45.9238 17.2965 45.9138 17.2565C45.9238 17.2065 45.9337 17.1465 45.9337 17.0965C45.9437 16.8165 45.8038 16.5465 45.5738 16.3765ZM38.0437 13.1465L43.5038 17.1366L38.2337 21.1965L38.0437 21.3365V13.1465ZM23.0338 2.17653L26.5537 4.74654H19.5137L23.0338 2.17653ZM9.84375 9.55653C9.84375 7.91653 11.2637 6.57655 13.0137 6.57655H33.0437C34.7937 6.57655 36.2137 7.91653 36.2137 9.55653V22.6665L29.0237 27.8866C28.9037 27.9166 28.7837 27.9565 28.6737 28.0365L23.0837 32.2565L17.2238 28.0165L9.83374 22.6565V9.55653H9.84375ZM8.01373 13.1465V21.1665L2.56375 17.1265L8.01373 13.1465ZM1.94376 19.1865L15.1437 28.7665L1.94376 38.3465V19.1865ZM3.70374 39.9765L16.7137 29.9065L22.5638 34.1366C22.8838 34.3766 23.3337 34.3665 23.6537 34.1265L29.2337 29.9165L42.3438 39.9765H3.70374ZM44.1137 38.3465L30.9138 28.7665L44.1137 19.1865V38.3465Z"/>
</mask>
<path d="M45.5738 16.3765L38.0437 10.8765V9.54652C38.0437 6.89652 35.8037 4.73653 33.0437 4.73653H29.6437L23.5638 0.296523C23.2438 0.0665234 22.8037 0.0665234 22.4837 0.296523L16.4037 4.73653H13.0038C10.2438 4.73653 8.00375 6.89652 8.00375 9.54652V10.8765L0.473755 16.3765C0.243755 16.5465 0.10375 16.8165 0.09375 17.1065C0.09375 17.1565 0.103739 17.2065 0.113739 17.2565C0.103739 17.2965 0.09375 17.3365 0.09375 17.3765V40.1265C0.09375 40.2565 0.133746 40.3865 0.183746 40.5065C0.0937463 40.7165 0.0637378 40.9465 0.143738 41.1765C0.273738 41.5465 0.613754 41.7965 1.00375 41.7965H45.0137C45.4037 41.7965 45.7538 41.5465 45.8838 41.1765C45.9638 40.9565 45.9338 40.7165 45.8438 40.5065C45.8937 40.3865 45.9337 40.2665 45.9337 40.1265V17.3765C45.9337 17.3365 45.9238 17.2965 45.9138 17.2565C45.9238 17.2065 45.9337 17.1465 45.9337 17.0965C45.9437 16.8165 45.8038 16.5465 45.5738 16.3765ZM38.0437 13.1465L43.5038 17.1366L38.2337 21.1965L38.0437 21.3365V13.1465ZM23.0338 2.17653L26.5537 4.74654H19.5137L23.0338 2.17653ZM9.84375 9.55653C9.84375 7.91653 11.2637 6.57655 13.0137 6.57655H33.0437C34.7937 6.57655 36.2137 7.91653 36.2137 9.55653V22.6665L29.0237 27.8866C28.9037 27.9166 28.7837 27.9565 28.6737 28.0365L23.0837 32.2565L17.2238 28.0165L9.83374 22.6565V9.55653H9.84375ZM8.01373 13.1465V21.1665L2.56375 17.1265L8.01373 13.1465ZM1.94376 19.1865L15.1437 28.7665L1.94376 38.3465V19.1865ZM3.70374 39.9765L16.7137 29.9065L22.5638 34.1366C22.8838 34.3766 23.3337 34.3665 23.6537 34.1265L29.2337 29.9165L42.3438 39.9765H3.70374ZM44.1137 38.3465L30.9138 28.7665L44.1137 19.1865V38.3465Z" fill="#AD7979"/>
<path d="M45.5738 16.3765L51.5177 8.33478L51.4949 8.31795L51.472 8.30124L45.5738 16.3765ZM38.0437 10.8765H28.0437V15.9559L32.1455 18.9518L38.0437 10.8765ZM29.6437 4.73653L23.7462 12.8124L26.3811 14.7365H29.6437V4.73653ZM23.5638 0.296523L29.4613 -7.77933L29.4308 -7.80159L29.4001 -7.82363L23.5638 0.296523ZM22.4837 0.296523L16.6474 -7.82363L16.6167 -7.80159L16.5862 -7.77933L22.4837 0.296523ZM16.4037 4.73653V14.7365H19.6664L22.3013 12.8124L16.4037 4.73653ZM8.00375 10.8765L13.902 18.9518L18.0038 15.9559V10.8765H8.00375ZM0.473755 16.3765L-5.42453 8.30126L-5.44739 8.31795L-5.47016 8.33478L0.473755 16.3765ZM0.09375 17.1065L-9.90031 16.7619L-9.90625 16.9342V17.1065H0.09375ZM0.113739 17.2565L9.81516 19.6819L10.3605 17.5004L9.91955 15.2954L0.113739 17.2565ZM0.183746 40.5065L9.3752 44.4457L11.0399 40.5614L9.41452 36.6604L0.183746 40.5065ZM0.143738 41.1765L-9.30123 44.4617L-9.29607 44.4766L-9.29086 44.4914L0.143738 41.1765ZM45.8838 41.1765L36.4858 37.7591L36.4672 37.8103L36.4492 37.8617L45.8838 41.1765ZM45.8438 40.5065L36.613 36.6604L34.9876 40.5614L36.6523 44.4457L45.8438 40.5065ZM45.9138 17.2565L36.108 15.2954L35.667 17.5004L36.2123 19.6819L45.9138 17.2565ZM45.9337 17.0965L35.9401 16.7396L35.9337 16.918V17.0965H45.9337ZM38.0437 13.1465L43.9439 5.07261L28.0437 -6.54687V13.1465H38.0437ZM43.5038 17.1366L49.6067 25.0583L60.1634 16.9254L49.404 9.06266L43.5038 17.1366ZM38.2337 21.1965L44.1644 29.2481L44.2512 29.1841L44.3366 29.1183L38.2337 21.1965ZM38.0437 21.3365H28.0437V41.1224L43.9744 29.388L38.0437 21.3365ZM23.0338 2.17653L28.9305 -5.89989L23.0338 -10.2052L17.137 -5.89991L23.0338 2.17653ZM26.5537 4.74654V14.7465H57.2087L32.4505 -3.32988L26.5537 4.74654ZM19.5137 4.74654L13.617 -3.3299L-11.1414 14.7465L19.5137 14.7465V4.74654ZM9.84375 9.55653V19.5565H19.8438V9.55653H9.84375ZM36.2137 22.6665L42.0888 30.7587L46.2137 27.764V22.6665H36.2137ZM29.0237 27.8866L31.4491 37.588L33.3299 37.1178L34.8988 35.9788L29.0237 27.8866ZM28.6737 28.0365L22.792 19.9492L22.7198 20.0016L22.6486 20.0554L28.6737 28.0365ZM23.0837 32.2565L17.2217 40.3582L23.2098 44.691L29.1089 40.2376L23.0837 32.2565ZM17.2238 28.0165L11.3525 36.1114L11.3617 36.1181L17.2238 28.0165ZM9.83374 22.6565H-0.16626V27.7569L3.96247 30.7515L9.83374 22.6565ZM9.83374 9.55653V-0.443467H-0.16626V9.55653H9.83374ZM8.01373 13.1465H18.0137V-6.53907L2.11611 5.07073L8.01373 13.1465ZM8.01373 21.1665L2.05865 29.2L18.0137 41.0272V21.1665H8.01373ZM2.56375 17.1265L-3.33387 9.05077L-14.3098 17.0663L-3.39134 25.16L2.56375 17.1265ZM1.94376 19.1865L7.81744 11.0933L-8.05624 -0.427068V19.1865H1.94376ZM15.1437 28.7665L21.0174 36.8597L32.1688 28.7665L21.0174 20.6733L15.1437 28.7665ZM1.94376 38.3465H-8.05624V57.9602L7.81746 46.4397L1.94376 38.3465ZM3.70374 39.9765L-2.41714 32.0686L-25.5534 49.9765H3.70374V39.9765ZM16.7137 29.9065L22.5732 21.803L16.5099 17.4187L10.5929 21.9986L16.7137 29.9065ZM22.5638 34.1366L28.5638 26.1366L28.4939 26.0842L28.4232 26.0331L22.5638 34.1366ZM23.6537 34.1265L29.6537 42.1265L29.6652 42.1179L29.6766 42.1093L23.6537 34.1265ZM29.2337 29.9165L35.3215 21.9831L29.2849 17.3509L23.2108 21.9337L29.2337 29.9165ZM42.3438 39.9765V49.9765H71.802L48.4315 32.0431L42.3438 39.9765ZM44.1137 38.3465L38.24 46.4397L54.1137 57.9602V38.3465H44.1137ZM30.9138 28.7665L25.0401 20.6733L13.8887 28.7665L25.0401 36.8597L30.9138 28.7665ZM44.1137 19.1865H54.1137V-0.427068L38.2401 11.0933L44.1137 19.1865ZM51.472 8.30124L43.942 2.80124L32.1455 18.9518L39.6755 24.4518L51.472 8.30124ZM48.0437 10.8765V9.54652H28.0437V10.8765H48.0437ZM48.0437 9.54652C48.0437 1.01885 40.965 -5.26347 33.0437 -5.26347V14.7365C30.6425 14.7365 28.0437 12.7742 28.0437 9.54652H48.0437ZM33.0437 -5.26347H29.6437V14.7365H33.0437V-5.26347ZM35.5412 -3.33932L29.4613 -7.77933L17.6662 8.37237L23.7462 12.8124L35.5412 -3.33932ZM29.4001 -7.82363C25.5929 -10.5601 20.4546 -10.5601 16.6474 -7.82363L28.3201 8.41668C25.1528 10.6931 20.8946 10.6931 17.7274 8.41668L29.4001 -7.82363ZM16.5862 -7.77933L10.5062 -3.33932L22.3013 12.8124L28.3812 8.37237L16.5862 -7.77933ZM16.4037 -5.26347H13.0038V14.7365H16.4037V-5.26347ZM13.0038 -5.26347C5.08253 -5.26347 -1.99625 1.01885 -1.99625 9.54652H18.0038C18.0038 12.7742 15.405 14.7365 13.0038 14.7365V-5.26347ZM-1.99625 9.54652V10.8765H18.0038V9.54652H-1.99625ZM2.10547 2.80125L-5.42453 8.30126L6.37204 24.4518L13.902 18.9518L2.10547 2.80125ZM-5.47016 8.33478C-8.21102 10.3606 -9.78764 13.4946 -9.90031 16.7619L10.0878 17.4511C9.99514 20.1385 8.69853 22.7324 6.41767 24.4183L-5.47016 8.33478ZM-9.90625 17.1065C-9.90625 17.7841 -9.83929 18.3318 -9.78958 18.6635C-9.7641 18.8335 -9.73907 18.9726 -9.72253 19.0608C-9.70717 19.1428 -9.69271 19.2145 -9.69207 19.2177L9.91955 15.2954C9.90658 15.2306 9.95125 15.4438 9.98957 15.6995C10.0318 15.9812 10.0938 16.479 10.0938 17.1065H-9.90625ZM-9.58769 14.8312C-9.58825 14.8334 -9.59399 14.8564 -9.6004 14.8824C-9.60727 14.9103 -9.61775 14.9534 -9.62997 15.0055C-9.65379 15.1072 -9.69089 15.2717 -9.72895 15.4749C-9.80296 15.8698 -9.90625 16.5403 -9.90625 17.3765H10.0938C10.0938 18.1728 9.99546 18.8032 9.92894 19.1582C9.86837 19.4815 9.79762 19.7521 9.81516 19.6819L-9.58769 14.8312ZM-9.90625 17.3765V40.1265H10.0938V17.3765H-9.90625ZM-9.90625 40.1265C-9.90625 42.1934 -9.2965 43.7539 -9.04702 44.3527L9.41452 36.6604C9.51157 36.8933 9.67167 37.307 9.81019 37.8504C9.94916 38.3957 10.0938 39.1762 10.0938 40.1265H-9.90625ZM-9.0077 36.5674C-9.82724 38.4796 -10.3895 41.3331 -9.30123 44.4617L9.58871 37.8913C10.5169 40.56 10.0147 42.9535 9.3752 44.4457L-9.0077 36.5674ZM-9.29086 44.4914C-7.81282 48.6981 -3.80691 51.7965 1.00375 51.7965V31.7965C5.03441 31.7965 8.36029 34.3949 9.57834 37.8617L-9.29086 44.4914ZM1.00375 51.7965H45.0137V31.7965H1.00375V51.7965ZM45.0137 51.7965C49.6975 51.7965 53.7974 48.8202 55.3184 44.4914L36.4492 37.8617C37.7101 34.2729 41.11 31.7965 45.0137 31.7965V51.7965ZM55.2817 44.594C56.4545 41.3686 55.8346 38.4326 55.0352 36.5674L36.6523 44.4457C36.0329 43.0005 35.473 40.5444 36.4858 37.7591L55.2817 44.594ZM55.0745 44.3527C55.2922 43.8302 55.9337 42.2506 55.9337 40.1265H35.9337C35.9337 38.2825 36.4953 36.9429 36.613 36.6604L55.0745 44.3527ZM55.9337 40.1265V17.3765H35.9337V40.1265H55.9337ZM55.9337 17.3765C55.9337 16.5403 55.8305 15.8698 55.7564 15.4749C55.7184 15.2717 55.6813 15.1072 55.6575 15.0055C55.6452 14.9534 55.6348 14.9103 55.6279 14.8824C55.6215 14.8564 55.6157 14.8334 55.6152 14.8312L36.2123 19.6819C36.2299 19.7521 36.1591 19.4815 36.0986 19.1582C36.032 18.8032 35.9337 18.1728 35.9337 17.3765H55.9337ZM55.7196 19.2177C55.7445 19.0932 55.9337 18.2055 55.9337 17.0965H35.9337C35.9337 16.5084 35.9884 16.0512 36.019 15.8268C36.0532 15.576 36.0902 15.3843 36.108 15.2954L55.7196 19.2177ZM55.9274 17.4534C56.0648 13.6053 54.1733 10.2976 51.5177 8.33478L39.6299 24.4183C37.4342 22.7955 35.8227 20.0278 35.9401 16.7396L55.9274 17.4534ZM32.1435 21.2204L37.6036 25.2104L49.404 9.06266L43.9439 5.07261L32.1435 21.2204ZM37.4009 9.21477L32.1308 13.2748L44.3366 29.1183L49.6067 25.0583L37.4009 9.21477ZM32.3031 13.145L32.1131 13.285L43.9744 29.388L44.1644 29.2481L32.3031 13.145ZM48.0437 21.3365V13.1465H28.0437V21.3365H48.0437ZM17.137 10.2529L20.657 12.823L32.4505 -3.32988L28.9305 -5.89989L17.137 10.2529ZM26.5537 -5.25346H19.5137V14.7465H26.5537V-5.25346ZM25.4104 12.823L28.9305 10.253L17.137 -5.89991L13.617 -3.3299L25.4104 12.823ZM19.8438 9.55653C19.8438 14.0019 16.2068 16.5766 13.0137 16.5766V-3.42345C6.32069 -3.42345 -0.15625 1.83118 -0.15625 9.55653H19.8438ZM13.0137 16.5766H33.0437V-3.42345H13.0137V16.5766ZM33.0437 16.5766C29.8508 16.5766 26.2137 14.002 26.2137 9.55653H46.2137C46.2137 1.83106 39.7366 -3.42345 33.0437 -3.42345V16.5766ZM26.2137 9.55653V22.6665H46.2137V9.55653H26.2137ZM30.3387 14.5743L23.1487 19.7943L34.8988 35.9788L42.0888 30.7587L30.3387 14.5743ZM26.5984 18.1851C26.0243 18.3286 24.4413 18.7497 22.792 19.9492L34.5555 36.1239C33.1261 37.1634 31.7832 37.5045 31.4491 37.588L26.5984 18.1851ZM22.6486 20.0554L17.0586 24.2755L29.1089 40.2376L34.6989 36.0176L22.6486 20.0554ZM28.9458 24.1549L23.0858 19.9149L11.3617 36.1181L17.2217 40.3582L28.9458 24.1549ZM23.095 19.9215L15.705 14.5616L3.96247 30.7515L11.3525 36.1114L23.095 19.9215ZM19.8337 22.6565V9.55653H-0.16626V22.6565H19.8337ZM9.83374 19.5565H9.84375V-0.443467H9.83374V19.5565ZM-1.98627 13.1465V21.1665H18.0137V13.1465H-1.98627ZM13.9688 13.133L8.51884 9.09305L-3.39134 25.16L2.05865 29.2L13.9688 13.133ZM8.46137 25.2023L13.9114 21.2223L2.11611 5.07073L-3.33387 9.05077L8.46137 25.2023ZM-3.92993 27.2797L9.27006 36.8597L21.0174 20.6733L7.81744 11.0933L-3.92993 27.2797ZM9.27003 20.6733L-3.92995 30.2533L7.81746 46.4397L21.0174 36.8597L9.27003 20.6733ZM11.9438 38.3465V19.1865H-8.05624V38.3465H11.9438ZM9.82461 47.8844L22.8346 37.8144L10.5929 21.9986L-2.41714 32.0686L9.82461 47.8844ZM10.8543 38.01L16.7043 42.24L28.4232 26.0331L22.5732 21.803L10.8543 38.01ZM16.5638 42.1366C20.6111 45.1721 25.953 44.9021 29.6537 42.1265L17.6537 26.1265C20.7145 23.831 25.1564 23.581 28.5638 26.1366L16.5638 42.1366ZM29.6766 42.1093L35.2566 37.8993L23.2108 21.9337L17.6309 26.1438L29.6766 42.1093ZM23.146 37.85L36.256 47.91L48.4315 32.0431L35.3215 21.9831L23.146 37.85ZM42.3438 29.9765H3.70374V49.9765H42.3438V29.9765ZM49.9874 30.2533L36.7875 20.6733L25.0401 36.8597L38.24 46.4397L49.9874 30.2533ZM36.7874 36.8597L49.9874 27.2797L38.2401 11.0933L25.0401 20.6733L36.7874 36.8597ZM34.1137 19.1865V38.3465H54.1137V19.1865H34.1137Z" fill="#AD7979" mask="url(#path-5-inside-3_1054_1303)"/>
</svg>
