<svg width="17" height="20" viewBox="0 0 17 20" fill="none" xmlns="http://www.w3.org/2000/svg">
<path d="M12.6468 10.562C12.5966 10.6095 12.5436 10.6541 12.4905 10.6988C12.4375 10.7434 12.3817 10.7909 12.3259 10.8355C12.2115 10.9276 12.0943 11.0141 11.9743 11.0978L9.49914 16.1849L9.00522 13.2549L9.73633 12.0773C9.64703 12.0968 9.55775 12.1136 9.46845 12.1303C9.23684 12.1722 9.00243 12.2001 8.76245 12.214C8.63129 12.2224 8.50013 12.228 8.36898 12.228C7.8611 12.228 7.36721 12.1666 6.89283 12.0522L7.63507 13.2549L7.17188 16.2351L4.42879 10.8439C4.30322 10.7434 4.18045 10.6374 4.06046 10.5286L4.01022 10.5732C0.337921 13.7488 0.388158 19.3075 0.390948 19.5419L0.393742 19.74H16.1099L16.1015 19.5307C15.8447 13.1126 13.2775 10.989 12.6468 10.562Z" fill="#9FAFBF"/>
<path d="M8.36784 0C5.11411 0 2.46875 2.6454 2.46875 5.89912C2.46875 9.15284 5.11411 11.7982 8.36784 11.7982C11.6216 11.7982 14.267 9.15284 14.267 5.89912C14.267 2.6454 11.6216 0 8.36784 0Z" fill="#9FAFBF"/>
</svg>
