<svg width="25" height="16" viewBox="0 0 25 16" fill="none" xmlns="http://www.w3.org/2000/svg">
<path d="M5.48136 1.27466C3.24616 1.27466 1.42578 3.09504 1.42578 5.33025C1.42578 7.56545 3.24616 9.38582 5.48136 9.38582C6.93602 9.38582 8.21327 8.61346 8.92832 7.45901C8.36884 6.54746 7.64015 4.89903 8.49711 2.62834C7.75477 1.8014 6.67948 1.27466 5.48136 1.27466Z" fill="#9FAFBF"/>
<path d="M8.26159 8.82363C8.21247 8.86184 8.14969 8.90823 8.08419 8.95462C7.68573 10.0081 6.67047 10.7613 5.47782 10.7613C4.27425 10.7613 3.25353 9.99718 2.86326 8.93007C2.73772 8.84001 2.63946 8.76358 2.58488 8.71718C2.56577 8.69808 2.54394 8.6817 2.52211 8.6626L2.48663 8.69263C-0.0378717 10.876 -0.0023965 14.6968 0.000332693 14.8579L0.00306455 14.9943H6.42758C6.52583 13.5124 6.9625 10.8787 8.73374 8.93007C8.60547 8.81271 8.4963 8.73083 8.42807 8.6817C8.39259 8.71445 8.35712 8.74449 8.32164 8.77724C8.29708 8.79361 8.27797 8.80725 8.26159 8.82363Z" fill="#9FAFBF"/>
<path d="M16.5882 8.54277C16.5473 8.57825 16.5064 8.61647 16.4654 8.65195C16.4463 8.66832 16.4245 8.6847 16.4054 8.7038C16.0097 9.02039 15.0954 9.61261 13.8945 9.80366C13.7745 9.82003 13.6571 9.83914 13.5343 9.84733C13.4306 9.85279 13.3296 9.85826 13.2232 9.85826C12.8438 9.85826 12.4781 9.81457 12.1233 9.73269C11.0016 9.44886 10.1474 8.78568 9.90447 8.58372C9.88263 8.56188 9.85534 8.54552 9.8335 8.52368L9.79257 8.55915C6.90236 11.0591 6.94056 15.434 6.94602 15.6196L6.94875 15.7751H19.3202L19.3147 15.6114C19.1046 10.5487 17.085 8.87846 16.5882 8.54277ZM14.8689 11.9652L13.1304 11.0782L11.3919 11.9652V9.81458L13.1304 10.7425L14.8689 9.81458V11.9652Z" fill="#9FAFBF"/>
<path d="M8.60156 4.64782C8.60156 7.2078 10.6867 9.29289 13.2494 9.29289H13.2521C14.4911 9.29289 15.6565 8.80709 16.5353 7.93102C17.4141 7.05223 17.8972 5.88414 17.8972 4.64509C17.8972 2.08238 15.8121 0 13.2494 0C10.6839 0.00272919 8.60156 2.08784 8.60156 4.64782Z" fill="#9FAFBF"/>
<path d="M19.7833 14.7623H24.9961L24.9988 14.6395C25.0015 14.4948 24.9497 11.2498 22.6817 9.28756L22.6517 9.26025C22.578 9.32848 22.5016 9.39398 22.4252 9.45675L20.8122 12.598L20.5257 10.7558L20.9842 10.0135C20.6921 10.0845 20.3865 10.1227 20.0726 10.1227C19.9907 10.1227 19.9089 10.1199 19.8297 10.1145C19.6823 10.1063 19.5377 10.0872 19.393 10.0627C19.3385 10.0517 19.2811 10.0408 19.2266 10.0299L19.6796 10.7586L19.3794 12.5135C19.6223 13.365 19.7315 14.1946 19.7833 14.7623Z" fill="#9FAFBF"/>
<path d="M20.2309 9.62343C22.2396 9.62343 23.8771 7.98863 23.8771 5.97995C23.8771 3.97127 22.2423 2.33374 20.2336 2.33374C19.4148 2.33374 18.6589 2.60394 18.0502 3.06245C18.2386 3.58372 18.3423 4.14593 18.3423 4.73271C18.3423 5.95266 17.892 7.06617 17.1523 7.92586C17.8019 8.94385 18.9372 9.62343 20.2309 9.62343Z" fill="#9FAFBF"/>
</svg>
