<svg width="26" height="26" viewBox="0 0 26 26" fill="none" xmlns="http://www.w3.org/2000/svg">
<ellipse cx="7.58203" cy="7.58325" rx="3.25" ry="3.25" transform="rotate(90 7.58203 7.58325)" stroke="#9FAFBF" stroke-width="2" stroke-linecap="round"/>
<path d="M10.293 5.41675H19.5013C19.6561 5.41675 19.7334 5.41675 19.7988 5.42103C20.8003 5.48667 21.598 6.28443 21.6637 7.28594C21.668 7.35127 21.668 7.42865 21.668 7.58341V7.58341C21.668 7.73817 21.668 7.81555 21.6637 7.88089C21.598 8.8824 20.8003 9.68016 19.7988 9.7458C19.7334 9.75008 19.6561 9.75008 19.5013 9.75008H10.293" stroke="#9FAFBF" stroke-width="2" stroke-linecap="round"/>
<ellipse cx="3.25" cy="3.25" rx="3.25" ry="3.25" transform="matrix(4.37114e-08 1 1 -4.37114e-08 15.168 15.1667)" stroke="#9FAFBF" stroke-width="2" stroke-linecap="round"/>
<path d="M15.707 16.25H6.4987C6.34394 16.25 6.26656 16.25 6.20122 16.2543C5.19971 16.3199 4.40196 17.1177 4.33631 18.1192C4.33203 18.1845 4.33203 18.2619 4.33203 18.4167V18.4167C4.33203 18.5714 4.33203 18.6488 4.33631 18.7141C4.40196 19.7157 5.19971 20.5134 6.20122 20.5791C6.26656 20.5833 6.34394 20.5833 6.4987 20.5833H15.707" stroke="#9FAFBF" stroke-width="2" stroke-linecap="round"/>
</svg>
