<svg width="20" height="27" viewBox="0 0 20 27" fill="none" xmlns="http://www.w3.org/2000/svg">
<path d="M9.66276 20.501C9.62302 20.5375 9.57997 20.5739 9.54023 20.6103C9.49718 20.6467 9.45413 20.6832 9.41109 20.7196C9.32168 20.7925 9.22896 20.862 9.13292 20.9282L7.16925 24.9649L6.7785 22.6402L7.358 21.7064C7.28846 21.723 7.21561 21.7362 7.14607 21.7495C6.96394 21.7826 6.77519 21.8057 6.58644 21.8157C6.48378 21.8223 6.37781 21.8256 6.27516 21.8256C5.87117 21.8256 5.48042 21.7759 5.10291 21.6865L5.69235 22.6402L5.32478 25.0079L3.14917 20.7328C3.04983 20.6534 2.95048 20.5706 2.85776 20.4812L2.81803 20.5143C0.705334 22.3422 0.145703 25.1636 0 26.6471H12.3516C11.9344 22.3058 10.1297 20.8156 9.66276 20.501Z" fill="#9FAFBF"/>
<path d="M6.2683 12.1165C3.6887 12.1165 1.58594 14.2159 1.58594 16.7955C1.58594 19.3751 3.68539 21.4779 6.2683 21.4779C8.85122 21.4779 10.9507 19.3784 10.9507 16.7955C10.9507 14.2159 8.85122 12.1165 6.2683 12.1165Z" fill="#9FAFBF"/>
<path d="M19.6756 23.5608C19.7021 23.5442 19.7187 23.5111 19.7154 23.478C19.712 23.4449 19.6955 23.4151 19.6657 23.4019C19.6557 23.3952 18.8742 22.9912 18.6656 22.4415C18.9405 22.7131 19.265 22.8257 19.6922 22.9051C19.7253 22.9118 19.7584 22.8985 19.7816 22.872C19.8015 22.8455 19.8081 22.8091 19.7948 22.7793C19.3875 21.7892 19.1855 20.6103 18.9902 19.4745C18.8709 18.7791 18.755 18.1003 18.5961 17.4943C18.5431 17.2327 18.4636 16.981 18.3577 16.7426C18.2418 16.4445 18.1093 16.1763 17.947 15.9478C17.7715 15.6995 17.2947 15.0272 16.2152 14.8054C15.8675 14.6928 15.4966 14.6299 15.1092 14.6299C14.3343 14.6299 13.6587 14.8848 13.1024 15.3153C12.5759 15.6465 12.1818 16.1498 11.8904 16.8784C11.7017 17.289 11.5626 17.7327 11.4831 18.1963C11.46 18.3254 11.4467 18.448 11.4401 18.5705C11.4136 18.7228 11.3904 18.8784 11.3672 19.044C11.258 19.8089 11.3374 20.8057 11.4864 21.7495C12.1057 22.7396 12.7249 24.2893 12.9402 26.6471H20.0001C19.9505 25.998 19.7882 24.8887 19.2882 23.7893C19.5134 23.6668 19.6591 23.5707 19.6756 23.5608ZM17.5033 22.9979C17.447 23.0674 16.341 23.7893 16.341 23.7893L16.8841 24.5311L15.1621 25.8821L15.1654 25.8887L15.1588 25.8854L15.1522 25.8887L15.1555 25.8821L13.4336 24.5311L13.9766 23.7893C13.9766 23.7893 12.8706 23.0674 12.8143 22.9979C12.715 22.8754 13.3077 22.3058 13.3077 22.3058L15.1555 25.8755L17.0033 22.3058C17.0099 22.3058 17.6027 22.872 17.5033 22.9979Z" fill="#9FAFBF"/>
<path d="M14.1883 0H1.68438C1.00223 0 0.449219 0.553002 0.449219 1.23516V7.9673C0.449219 8.64946 1.00223 9.20246 1.68438 9.20246H6.71113L6.54556 11.3185L8.38341 9.20246H14.1883C14.8705 9.20246 15.4235 8.64946 15.4235 7.9673V1.23516C15.4235 0.553002 14.8672 0 14.1883 0ZM8.50924 5.96718H2.26719C2.14798 5.96718 2.05195 5.87116 2.05195 5.75195C2.05195 5.63274 2.14798 5.5367 2.26719 5.5367H8.50924C8.62845 5.5367 8.72779 5.63274 8.72779 5.75195C8.72448 5.87116 8.62845 5.96718 8.50924 5.96718ZM13.4499 4.47043H2.26719C2.14798 4.47043 2.05195 4.37439 2.05195 4.25518C2.05195 4.13597 2.14798 4.03993 2.26719 4.03993H13.4532C13.5724 4.03993 13.6684 4.13597 13.6684 4.25518C13.6684 4.37439 13.5691 4.47043 13.4499 4.47043ZM13.4499 2.97366H2.26719C2.14798 2.97366 2.05195 2.87762 2.05195 2.75841C2.05195 2.6392 2.14798 2.54318 2.26719 2.54318H13.4532C13.5724 2.54318 13.6684 2.6392 13.6684 2.75841C13.6684 2.87762 13.5691 2.97366 13.4499 2.97366Z" fill="#9FAFBF"/>
<path d="M18.8221 5.96729H15.9776V8.39788C15.9776 9.13302 15.3815 9.72909 14.6464 9.72909H10.8945V11.3484C10.8945 11.7755 11.2389 12.1232 11.6661 12.1232H15.4809L16.6299 13.4478L16.5273 12.1232H18.8188C19.246 12.1232 19.5903 11.7755 19.5903 11.3484V6.73885C19.5937 6.31168 19.2493 5.96729 18.8221 5.96729Z" fill="#9FAFBF"/>
</svg>
