<svg width="44" height="51" viewBox="0 0 44 51" fill="none" xmlns="http://www.w3.org/2000/svg">
<path d="M38.7129 0C25.5266 10.9261 19.9995 28.7673 24.7346 45.1239L25.3083 46.4132C24.8459 38.7254 24.7902 30.8119 27.907 23.8491C29.7137 19.8163 32.5179 16.2611 34.8341 12.4715C37.1503 8.67318 39.0212 4.45379 38.7129 0Z" fill="#04BA57"/>
<path d="M30.5199 27.4172C27.3732 31.3327 25.6478 36.3942 25.7377 41.4427L25.9903 41.7379C25.5836 38.4866 27.6258 35.3915 30.1303 33.3208C32.6349 31.2502 35.6317 29.8828 38.2262 27.9294C40.8164 25.9717 43.0897 23.124 43.1068 19.851C38.2133 20.7712 33.6666 23.5017 30.5199 27.4172Z" fill="#04BA57"/>
<path d="M12.9722 25.7591C12.0347 25.3293 10.8573 25.2078 9.94539 25.6853C6.058 27.7342 2.59873 30.3518 0 33.5988C1.27582 34.2152 2.95836 33.7464 4.23846 33.143C6.80294 31.9319 9.24754 30.4559 11.5209 28.75C11.7949 28.5459 12.1288 28.3246 12.4499 28.4374C12.6597 28.5112 12.801 28.7152 12.9252 28.9062C15.2156 32.4398 17.5104 35.9733 19.8009 39.5068C19.8308 39.5024 19.8565 39.5024 19.8865 39.4981C19.0516 35.3265 17.3948 31.3285 15.0358 27.808C14.4835 26.9919 13.8585 26.1671 12.9722 25.7591Z" fill="#04BA57"/>
<path d="M20.5157 39.446C20.3059 39.4634 20.0961 39.4808 19.8906 39.4981C19.8949 39.5112 19.8992 39.5285 19.8992 39.5415L20.5157 39.446Z" fill="#04BA57"/>
<path d="M19.3726 21.0187C16.9922 15.2887 13.1647 10.1838 8.36115 6.32036C8.12568 6.12936 7.78317 5.93837 7.54342 6.12503C7.3422 6.2813 7.36789 6.59384 7.41927 6.84996C8.14708 10.4095 9.65409 13.7607 11.3837 16.9426C13.3831 20.6237 15.6992 24.1312 17.5487 27.8948C19.4411 31.7452 20.8368 35.8474 21.6887 40.0624L22.1383 40.4444C22.7633 34.2542 21.753 26.7488 19.3726 21.0187Z" fill="#04BA57"/>
<path d="M24.1926 38.044C24.4837 30.4604 26.3161 22.955 29.5528 16.1093C30.4647 14.182 31.4836 12.3154 32.6053 10.5095C32.7166 10.3316 32.4383 10.1666 32.327 10.3446C28.3026 16.8299 25.6097 24.1487 24.4623 31.7236C24.1455 33.816 23.9486 35.9257 23.8672 38.044C23.8629 38.2524 24.184 38.2524 24.1926 38.044Z" fill="#291F4C"/>
<path d="M26.5805 37.5753C28.1474 31.2896 32.8397 25.985 38.842 23.7407C39.0347 23.6669 38.9491 23.3544 38.7564 23.4282C32.6513 25.7115 27.8649 31.0899 26.2722 37.4928C26.2166 37.6925 26.5291 37.7793 26.5805 37.5753Z" fill="#291F4C"/>
<path d="M22.3801 38.1306C21.0486 30.6208 18.4199 23.3627 14.631 16.7689C13.5393 14.8675 12.3491 13.0226 11.0733 11.2385C10.9534 11.0692 10.6751 11.2342 10.795 11.4035C15.2389 17.6067 18.5869 24.5912 20.6505 31.9664C21.2242 34.024 21.6951 36.112 22.0718 38.2174C22.1061 38.4257 22.4143 38.3389 22.3801 38.1306Z" fill="#291F4C"/>
<path d="M0.797202 33.4945C3.6314 30.6208 7.07783 28.4287 10.8668 27.096C11.0594 27.0265 10.9781 26.714 10.7811 26.7834C6.94082 28.1378 3.44731 30.356 0.570295 33.2688C0.424732 33.412 0.651639 33.6421 0.797202 33.4945Z" fill="#291F4C"/>
<path d="M32.5107 35.5945L15.3984 36.0286L18.5666 49.811L18.5965 50.0758L29.7792 50.1974L32.5107 35.5945Z" fill="#FF5C45"/>
<path d="M33.4008 35.3399L14.2031 35.6884L14.2716 39.564L33.4692 39.2155L33.4008 35.3399Z" fill="#FF5C45"/>
<path d="M14.5994 39.9352C20.833 39.7094 27.0665 39.4837 33.3 39.258C33.5055 39.2493 33.5055 38.9237 33.3 38.9324C27.0665 39.1581 20.833 39.3839 14.5994 39.6096C14.3939 39.6183 14.3939 39.9439 14.5994 39.9352Z" fill="#291F4C"/>
</svg>
